<svg xmlns="http://www.w3.org/2000/svg" xmlns:xlink="http://www.w3.org/1999/xlink" width="500" zoomAndPan="magnify" viewBox="0 0 375 374.999991" height="500" preserveAspectRatio="xMidYMid meet" version="1.0"><defs><filter x="0%" y="0%" width="100%" height="100%" id="5ba7f3f9c5"><feColorMatrix values="0 0 0 0 1 0 0 0 0 1 0 0 0 0 1 0 0 0 1 0" color-interpolation-filters="sRGB"/></filter><g/><clipPath id="9614ae99e8"><path d="M 75 123 L 149 123 L 149 207 L 75 207 Z M 75 123 " clip-rule="nonzero"/></clipPath><clipPath id="cc175f744c"><path d="M 75.726562 122.242188 L 148.460938 123.707031 L 145.867188 252.679688 L 73.132812 251.21875 Z M 75.726562 122.242188 " clip-rule="nonzero"/></clipPath><clipPath id="2675fc6a69"><path d="M 148.308594 123.703125 L 75.574219 122.242188 L 72.980469 251.214844 L 145.714844 252.675781 Z M 148.308594 123.703125 " clip-rule="nonzero"/></clipPath><clipPath id="ac1d05e4ba"><path d="M 95 177 L 136 177 L 136 250 L 95 250 Z M 95 177 " clip-rule="nonzero"/></clipPath><clipPath id="d9abcce572"><path d="M 75.726562 122.242188 L 148.460938 123.707031 L 145.867188 252.679688 L 73.132812 251.21875 Z M 75.726562 122.242188 " clip-rule="nonzero"/></clipPath><clipPath id="88a0aafe4b"><path d="M 148.308594 123.703125 L 75.574219 122.242188 L 72.980469 251.214844 L 145.714844 252.675781 Z M 148.308594 123.703125 " clip-rule="nonzero"/></clipPath><clipPath id="6255895a9c"><path d="M 95 177 L 130 177 L 130 250 L 95 250 Z M 95 177 " clip-rule="nonzero"/></clipPath><clipPath id="7e9edda3a3"><path d="M 75.726562 122.242188 L 148.460938 123.707031 L 145.867188 252.679688 L 73.132812 251.21875 Z M 75.726562 122.242188 " clip-rule="nonzero"/></clipPath><clipPath id="f785d9c4fe"><path d="M 148.308594 123.703125 L 75.574219 122.242188 L 72.980469 251.214844 L 145.714844 252.675781 Z M 148.308594 123.703125 " clip-rule="nonzero"/></clipPath><clipPath id="7cc56fb71e"><path d="M 103 209 L 134 209 L 134 252 L 103 252 Z M 103 209 " clip-rule="nonzero"/></clipPath><clipPath id="a3da081f54"><path d="M 75.726562 122.242188 L 148.460938 123.707031 L 145.867188 252.679688 L 73.132812 251.21875 Z M 75.726562 122.242188 " clip-rule="nonzero"/></clipPath><clipPath id="66079beefa"><path d="M 148.308594 123.703125 L 75.574219 122.242188 L 72.980469 251.214844 L 145.714844 252.675781 Z M 148.308594 123.703125 " clip-rule="nonzero"/></clipPath><clipPath id="4e00660d84"><path d="M 79 172 L 105 172 L 105 188 L 79 188 Z M 79 172 " clip-rule="nonzero"/></clipPath><clipPath id="b8318e6c2c"><path d="M 75.726562 122.242188 L 148.460938 123.707031 L 145.867188 252.679688 L 73.132812 251.21875 Z M 75.726562 122.242188 " clip-rule="nonzero"/></clipPath><clipPath id="cb0ec64317"><path d="M 148.308594 123.703125 L 75.574219 122.242188 L 72.980469 251.214844 L 145.714844 252.675781 Z M 148.308594 123.703125 " clip-rule="nonzero"/></clipPath><clipPath id="9034b201ed"><path d="M 84 186 L 105 186 L 105 195 L 84 195 Z M 84 186 " clip-rule="nonzero"/></clipPath><clipPath id="8c9a486c55"><path d="M 75.726562 122.242188 L 148.460938 123.707031 L 145.867188 252.679688 L 73.132812 251.21875 Z M 75.726562 122.242188 " clip-rule="nonzero"/></clipPath><clipPath id="4f25591fb6"><path d="M 148.308594 123.703125 L 75.574219 122.242188 L 72.980469 251.214844 L 145.714844 252.675781 Z M 148.308594 123.703125 " clip-rule="nonzero"/></clipPath><clipPath id="84f7f4b559"><path d="M 106 144 L 121 144 L 121 162 L 106 162 Z M 106 144 " clip-rule="nonzero"/></clipPath><clipPath id="81f5b0db2b"><path d="M 75.726562 122.242188 L 148.460938 123.707031 L 145.867188 252.679688 L 73.132812 251.21875 Z M 75.726562 122.242188 " clip-rule="nonzero"/></clipPath><clipPath id="525b528b22"><path d="M 148.308594 123.703125 L 75.574219 122.242188 L 72.980469 251.214844 L 145.714844 252.675781 Z M 148.308594 123.703125 " clip-rule="nonzero"/></clipPath><clipPath id="386776a65c"><path d="M 202 156.464844 L 249 156.464844 L 249 202 L 202 202 Z M 202 156.464844 " clip-rule="nonzero"/></clipPath><clipPath id="aa4101c2d6"><path d="M 215.710938 171.347656 L 235.558594 171.347656 L 235.558594 188.738281 L 215.710938 188.738281 Z M 215.710938 171.347656 " clip-rule="nonzero"/></clipPath><clipPath id="f6442bb79b"><path d="M 215.710938 176.476562 C 215.710938 182.003906 225.625 188.738281 225.625 188.738281 C 225.625 188.738281 235.496094 181.953125 235.539062 176.476562 C 235.539062 173.652344 233.234375 171.347656 230.40625 171.347656 C 228.234375 171.347656 226.363281 172.738281 225.625 174.648438 C 224.886719 172.738281 223.015625 171.347656 220.839844 171.347656 C 218.011719 171.347656 215.710938 173.652344 215.710938 176.476562 " clip-rule="nonzero"/></clipPath><mask id="0ec2e35a1a"><g filter="url(#5ba7f3f9c5)"><rect x="-37.5" width="450" fill="#000000" y="-37.499999" height="449.999989" fill-opacity="0.82"/></g></mask><clipPath id="31c031fe9e"><path d="M 0.734375 0.898438 L 16.53125 0.898438 L 16.53125 14.738281 L 0.734375 14.738281 Z M 0.734375 0.898438 " clip-rule="nonzero"/></clipPath><clipPath id="e958bbf672"><path d="M 0.734375 4.980469 C 0.734375 9.378906 8.625 14.738281 8.625 14.738281 C 8.625 14.738281 16.480469 9.339844 16.515625 4.980469 C 16.515625 2.730469 14.679688 0.898438 12.429688 0.898438 C 10.699219 0.898438 9.210938 2.003906 8.625 3.527344 C 8.035156 2.003906 6.546875 0.898438 4.816406 0.898438 C 2.566406 0.898438 0.734375 2.730469 0.734375 4.980469 " clip-rule="nonzero"/></clipPath><clipPath id="d0372324b5"><rect x="0" width="17" y="0" height="15"/></clipPath></defs><g clip-path="url(#9614ae99e8)"><g clip-path="url(#cc175f744c)"><g clip-path="url(#2675fc6a69)"><path fill="#ffffff" d="M 106.734375 180.3125 C 107.386719 184.742188 106.839844 188.347656 105.332031 192.183594 C 103.648438 196.472656 101.453125 200.90625 101.382812 206.46875 C 103.375 204.136719 105.703125 202.070312 108.367188 200.292969 C 113.382812 196.949219 117.019531 194.226562 119.667969 191.003906 C 121.652344 188.582031 123.09375 186.390625 124.144531 184.5 C 124.277344 183.578125 124.4375 182.625 124.609375 181.625 C 126.90625 168.394531 137.230469 148.480469 148.285156 123.703125 C 142.644531 130.59375 125.300781 162.875 115.910156 165.183594 C 106.671875 167.457031 75.417969 141.867188 75.351562 141.742188 C 88.917969 159.570312 104.996094 168.503906 106.734375 180.3125 Z M 106.734375 180.3125 " fill-opacity="1" fill-rule="nonzero"/></g></g></g><g clip-path="url(#ac1d05e4ba)"><g clip-path="url(#d9abcce572)"><g clip-path="url(#88a0aafe4b)"><path fill="#8576eb" d="M 126.074219 220.640625 C 133.4375 211.585938 137.3125 195.769531 134.035156 181.847656 C 134.035156 181.847656 134.339844 205.617188 110.925781 221.839844 C 110.925781 221.839844 130.773438 203.976562 129.671875 177.273438 C 129.671875 177.273438 129.363281 183.539062 121.800781 192.753906 C 118.847656 196.355469 114.871094 199.273438 109.898438 202.59375 C 87.183594 217.746094 98.449219 249.542969 98.449219 249.542969 C 103.277344 236.449219 117.269531 231.476562 126.074219 220.640625 Z M 126.074219 220.640625 " fill-opacity="1" fill-rule="nonzero"/></g></g></g><g clip-path="url(#6255895a9c)"><g clip-path="url(#7e9edda3a3)"><g clip-path="url(#f785d9c4fe)"><path fill="#8576eb" d="M 109.898438 202.589844 C 114.871094 199.273438 118.847656 196.355469 121.800781 192.753906 C 129.363281 183.539062 129.671875 177.273438 129.671875 177.273438 C 129.671875 177.273438 129.917969 183.542969 123.195312 193.386719 C 120.570312 197.234375 116.863281 200.492188 112.203125 204.234375 C 98.195312 215.480469 98.089844 234.1875 98.449219 249.542969 C 98.449219 249.542969 87.183594 217.746094 109.898438 202.589844 Z M 109.898438 202.589844 " fill-opacity="1" fill-rule="nonzero"/></g></g></g><g clip-path="url(#7cc56fb71e)"><g clip-path="url(#a3da081f54)"><g clip-path="url(#66079beefa)"><path fill="#8576eb" d="M 128.097656 223.558594 C 120.789062 234.269531 108.597656 240.320312 103.921875 251.910156 C 110.167969 244.796875 119.179688 239.875 125.421875 231.925781 C 129.765625 226.394531 132.800781 218.425781 133.761719 209.933594 C 132.59375 215.097656 130.652344 219.816406 128.097656 223.558594 Z M 128.097656 223.558594 " fill-opacity="1" fill-rule="nonzero"/></g></g></g><g clip-path="url(#4e00660d84)"><g clip-path="url(#b8318e6c2c)"><g clip-path="url(#cb0ec64317)"><path fill="#8576eb" d="M 94.25 175.566406 C 98.375 176.761719 102.867188 180.734375 104.792969 185.628906 C 104.792969 185.628906 99.898438 178.378906 89.417969 178.382812 C 89.417969 178.382812 99.167969 179.621094 104.433594 187.929688 C 104.433594 187.929688 103.027344 186.097656 98.804688 184.898438 C 97.15625 184.429688 95.34375 184.378906 93.144531 184.417969 C 83.097656 184.597656 79.835938 172.621094 79.835938 172.621094 C 84.042969 175.566406 89.316406 174.136719 94.25 175.566406 Z M 94.25 175.566406 " fill-opacity="1" fill-rule="nonzero"/></g></g></g><g clip-path="url(#9034b201ed)"><g clip-path="url(#8c9a486c55)"><g clip-path="url(#4f25591fb6)"><path fill="#8576eb" d="M 94.046875 187.316406 C 96.894531 186.421875 101.019531 186.996094 104.019531 189.089844 C 104.019531 189.089844 98.398438 186.773438 92.332031 190.804688 C 92.332031 190.804688 98.453125 187.773438 104.695312 190.558594 C 104.695312 190.558594 103.175781 190.039062 100.269531 190.96875 C 99.136719 191.328125 98.066406 192 96.808594 192.867188 C 91.0625 196.835938 84.566406 191.15625 84.566406 191.15625 C 88.136719 191.242188 90.640625 188.386719 94.046875 187.316406 Z M 94.046875 187.316406 " fill-opacity="1" fill-rule="nonzero"/></g></g></g><g clip-path="url(#84f7f4b559)"><g clip-path="url(#81f5b0db2b)"><g clip-path="url(#525b528b22)"><path fill="#ffffff" d="M 120.394531 152.09375 C 120.304688 151.539062 120.167969 150.996094 119.988281 150.46875 C 119.808594 149.941406 119.585938 149.433594 119.324219 148.949219 C 119.066406 148.46875 118.765625 148.015625 118.433594 147.597656 C 118.101562 147.179688 117.742188 146.800781 117.347656 146.460938 C 116.957031 146.125 116.546875 145.832031 116.113281 145.589844 C 115.675781 145.34375 115.230469 145.152344 114.769531 145.007812 C 114.308594 144.867188 113.839844 144.78125 113.371094 144.746094 C 112.902344 144.714844 112.4375 144.734375 111.976562 144.8125 C 111.515625 144.886719 111.066406 145.019531 110.632812 145.203125 C 110.199219 145.382812 109.785156 145.617188 109.394531 145.902344 C 109.003906 146.183594 108.644531 146.511719 108.3125 146.882812 C 107.980469 147.253906 107.683594 147.664062 107.421875 148.109375 C 107.160156 148.554688 106.941406 149.03125 106.761719 149.535156 C 106.582031 150.039062 106.445312 150.558594 106.355469 151.101562 C 106.261719 151.644531 106.21875 152.195312 106.21875 152.753906 C 106.21875 153.3125 106.261719 153.867188 106.355469 154.421875 C 106.449219 154.976562 106.582031 155.519531 106.765625 156.046875 C 106.945312 156.578125 107.164062 157.082031 107.425781 157.566406 C 107.6875 158.050781 107.984375 158.5 108.316406 158.917969 C 108.648438 159.339844 109.011719 159.714844 109.402344 160.054688 C 109.792969 160.394531 110.207031 160.683594 110.640625 160.929688 C 111.074219 161.171875 111.523438 161.367188 111.984375 161.507812 C 112.445312 161.648438 112.910156 161.738281 113.378906 161.769531 C 113.851562 161.804688 114.316406 161.78125 114.777344 161.707031 C 115.238281 161.628906 115.683594 161.5 116.121094 161.316406 C 116.554688 161.132812 116.964844 160.898438 117.355469 160.617188 C 117.746094 160.335938 118.109375 160.007812 118.441406 159.636719 C 118.773438 159.261719 119.070312 158.855469 119.332031 158.40625 C 119.589844 157.960938 119.8125 157.488281 119.992188 156.984375 C 120.171875 156.480469 120.304688 155.957031 120.398438 155.414062 C 120.488281 154.875 120.535156 154.324219 120.535156 153.765625 C 120.535156 153.207031 120.488281 152.648438 120.394531 152.09375 Z M 120.394531 152.09375 " fill-opacity="1" fill-rule="nonzero"/></g></g></g><g fill="#fcd7ff" fill-opacity="1"><g transform="translate(66.356719, 199.543259)"><g><path d="M 23.765625 -31.375 C 23.609375 -31.113281 23.4375 -30.914062 23.25 -30.78125 C 23.070312 -30.65625 22.851562 -30.59375 22.59375 -30.59375 C 22.300781 -30.59375 21.957031 -30.738281 21.5625 -31.03125 C 21.164062 -31.320312 20.664062 -31.644531 20.0625 -32 C 19.46875 -32.351562 18.75 -32.675781 17.90625 -32.96875 C 17.070312 -33.269531 16.054688 -33.421875 14.859375 -33.421875 C 13.742188 -33.421875 12.753906 -33.269531 11.890625 -32.96875 C 11.035156 -32.664062 10.316406 -32.253906 9.734375 -31.734375 C 9.160156 -31.210938 8.722656 -30.597656 8.421875 -29.890625 C 8.128906 -29.191406 7.984375 -28.4375 7.984375 -27.625 C 7.984375 -26.59375 8.238281 -25.734375 8.75 -25.046875 C 9.257812 -24.367188 9.929688 -23.785156 10.765625 -23.296875 C 11.609375 -22.816406 12.5625 -22.398438 13.625 -22.046875 C 14.695312 -21.691406 15.789062 -21.320312 16.90625 -20.9375 C 18.019531 -20.550781 19.109375 -20.117188 20.171875 -19.640625 C 21.234375 -19.171875 22.179688 -18.570312 23.015625 -17.84375 C 23.859375 -17.125 24.535156 -16.234375 25.046875 -15.171875 C 25.554688 -14.117188 25.8125 -12.820312 25.8125 -11.28125 C 25.8125 -9.65625 25.535156 -8.128906 24.984375 -6.703125 C 24.429688 -5.273438 23.625 -4.035156 22.5625 -2.984375 C 21.5 -1.929688 20.191406 -1.097656 18.640625 -0.484375 C 17.085938 0.117188 15.328125 0.421875 13.359375 0.421875 C 10.941406 0.421875 8.742188 -0.015625 6.765625 -0.890625 C 4.796875 -1.765625 3.113281 -2.945312 1.71875 -4.4375 L 3.171875 -6.828125 C 3.304688 -7.015625 3.472656 -7.171875 3.671875 -7.296875 C 3.867188 -7.429688 4.085938 -7.5 4.328125 -7.5 C 4.554688 -7.5 4.8125 -7.40625 5.09375 -7.21875 C 5.382812 -7.039062 5.707031 -6.8125 6.0625 -6.53125 C 6.425781 -6.257812 6.84375 -5.957031 7.3125 -5.625 C 7.78125 -5.300781 8.3125 -5 8.90625 -4.71875 C 9.507812 -4.445312 10.191406 -4.21875 10.953125 -4.03125 C 11.710938 -3.851562 12.566406 -3.765625 13.515625 -3.765625 C 14.710938 -3.765625 15.773438 -3.925781 16.703125 -4.25 C 17.640625 -4.582031 18.429688 -5.046875 19.078125 -5.640625 C 19.734375 -6.234375 20.234375 -6.945312 20.578125 -7.78125 C 20.921875 -8.613281 21.09375 -9.539062 21.09375 -10.5625 C 21.09375 -11.6875 20.835938 -12.609375 20.328125 -13.328125 C 19.816406 -14.046875 19.144531 -14.644531 18.3125 -15.125 C 17.488281 -15.613281 16.539062 -16.023438 15.46875 -16.359375 C 14.394531 -16.691406 13.300781 -17.035156 12.1875 -17.390625 C 11.082031 -17.742188 9.992188 -18.15625 8.921875 -18.625 C 7.847656 -19.09375 6.894531 -19.695312 6.0625 -20.4375 C 5.238281 -21.1875 4.570312 -22.117188 4.0625 -23.234375 C 3.550781 -24.347656 3.296875 -25.726562 3.296875 -27.375 C 3.296875 -28.6875 3.550781 -29.957031 4.0625 -31.1875 C 4.570312 -32.414062 5.3125 -33.503906 6.28125 -34.453125 C 7.257812 -35.398438 8.460938 -36.160156 9.890625 -36.734375 C 11.316406 -37.304688 12.957031 -37.59375 14.8125 -37.59375 C 16.882812 -37.59375 18.773438 -37.265625 20.484375 -36.609375 C 22.191406 -35.953125 23.691406 -35 24.984375 -33.75 Z M 23.765625 -31.375 "/></g></g></g><g fill="#fcd7ff" fill-opacity="1"><g transform="translate(91.294218, 199.543259)"><g/></g></g><g fill="#fcd7ff" fill-opacity="1"><g transform="translate(101.357963, 199.543259)"><g/></g></g><g fill="#fcd7ff" fill-opacity="1"><g transform="translate(111.421707, 199.543259)"><g/></g></g><g fill="#fcd7ff" fill-opacity="1"><g transform="translate(121.485452, 199.543259)"><g/></g></g><g fill="#fcd7ff" fill-opacity="1"><g transform="translate(131.55984, 199.543259)"><g><path d="M 34.875 -37.1875 L 34.875 0 L 32.359375 0 C 31.953125 0 31.613281 -0.0664062 31.34375 -0.203125 C 31.082031 -0.347656 30.820312 -0.582031 30.5625 -0.90625 L 9.0625 -28.921875 C 9.09375 -28.492188 9.113281 -28.070312 9.125 -27.65625 C 9.144531 -27.238281 9.15625 -26.847656 9.15625 -26.484375 L 9.15625 0 L 4.75 0 L 4.75 -37.1875 L 7.34375 -37.1875 C 7.570312 -37.1875 7.757812 -37.171875 7.90625 -37.140625 C 8.0625 -37.117188 8.203125 -37.078125 8.328125 -37.015625 C 8.453125 -36.953125 8.570312 -36.863281 8.6875 -36.75 C 8.8125 -36.632812 8.941406 -36.492188 9.078125 -36.328125 L 30.59375 -8.328125 C 30.550781 -8.773438 30.515625 -9.210938 30.484375 -9.640625 C 30.460938 -10.066406 30.453125 -10.46875 30.453125 -10.84375 L 30.453125 -37.1875 Z M 34.875 -37.1875 "/></g></g></g><g fill="#fcd7ff" fill-opacity="1"><g transform="translate(167.952136, 199.543259)"><g><path d="M 30.84375 -7.6875 C 31.125 -7.6875 31.367188 -7.570312 31.578125 -7.34375 L 33.578125 -5.1875 C 32.054688 -3.425781 30.207031 -2.050781 28.03125 -1.0625 C 25.863281 -0.0703125 23.238281 0.421875 20.15625 0.421875 C 17.488281 0.421875 15.066406 -0.0390625 12.890625 -0.96875 C 10.710938 -1.894531 8.851562 -3.191406 7.3125 -4.859375 C 5.769531 -6.535156 4.578125 -8.539062 3.734375 -10.875 C 2.890625 -13.207031 2.46875 -15.773438 2.46875 -18.578125 C 2.46875 -21.378906 2.90625 -23.945312 3.78125 -26.28125 C 4.664062 -28.613281 5.90625 -30.617188 7.5 -32.296875 C 9.101562 -33.972656 11.019531 -35.273438 13.25 -36.203125 C 15.488281 -37.128906 17.957031 -37.59375 20.65625 -37.59375 C 23.300781 -37.59375 25.632812 -37.164062 27.65625 -36.3125 C 29.675781 -35.46875 31.457031 -34.320312 33 -32.875 L 31.34375 -30.5625 C 31.238281 -30.382812 31.101562 -30.238281 30.9375 -30.125 C 30.769531 -30.019531 30.550781 -29.96875 30.28125 -29.96875 C 29.96875 -29.96875 29.585938 -30.132812 29.140625 -30.46875 C 28.691406 -30.8125 28.101562 -31.1875 27.375 -31.59375 C 26.644531 -32.007812 25.734375 -32.382812 24.640625 -32.71875 C 23.554688 -33.0625 22.21875 -33.234375 20.625 -33.234375 C 18.707031 -33.234375 16.953125 -32.898438 15.359375 -32.234375 C 13.765625 -31.566406 12.390625 -30.601562 11.234375 -29.34375 C 10.085938 -28.082031 9.195312 -26.539062 8.5625 -24.71875 C 7.925781 -22.90625 7.609375 -20.859375 7.609375 -18.578125 C 7.609375 -16.253906 7.9375 -14.1875 8.59375 -12.375 C 9.257812 -10.5625 10.164062 -9.023438 11.3125 -7.765625 C 12.46875 -6.515625 13.828125 -5.5625 15.390625 -4.90625 C 16.960938 -4.25 18.65625 -3.921875 20.46875 -3.921875 C 21.570312 -3.921875 22.566406 -3.984375 23.453125 -4.109375 C 24.347656 -4.242188 25.171875 -4.445312 25.921875 -4.71875 C 26.679688 -5 27.382812 -5.347656 28.03125 -5.765625 C 28.675781 -6.191406 29.320312 -6.703125 29.96875 -7.296875 C 30.257812 -7.554688 30.550781 -7.6875 30.84375 -7.6875 Z M 30.84375 -7.6875 "/></g></g></g><g fill="#fcd7ff" fill-opacity="1"><g transform="translate(199.399683, 199.543259)"><g/></g></g><g fill="#fcd7ff" fill-opacity="1"><g transform="translate(209.463428, 199.543259)"><g/></g></g><g fill="#fcd7ff" fill-opacity="1"><g transform="translate(219.527173, 199.543259)"><g/></g></g><g fill="#fcd7ff" fill-opacity="1"><g transform="translate(229.590918, 199.543259)"><g/></g></g><g fill="#fcd7ff" fill-opacity="1"><g transform="translate(239.654662, 199.543259)"><g/></g></g><g fill="#fcd7ff" fill-opacity="1"><g transform="translate(249.719992, 199.543259)"><g><path d="M 15.046875 -19.171875 C 16.503906 -19.171875 17.789062 -19.347656 18.90625 -19.703125 C 20.019531 -20.054688 20.953125 -20.554688 21.703125 -21.203125 C 22.453125 -21.859375 23.015625 -22.632812 23.390625 -23.53125 C 23.773438 -24.425781 23.96875 -25.421875 23.96875 -26.515625 C 23.96875 -28.734375 23.238281 -30.398438 21.78125 -31.515625 C 20.332031 -32.640625 18.15625 -33.203125 15.25 -33.203125 L 9.75 -33.203125 L 9.75 -19.171875 Z M 32.21875 0 L 27.765625 0 C 26.847656 0 26.171875 -0.351562 25.734375 -1.0625 L 16.09375 -14.34375 C 15.789062 -14.757812 15.472656 -15.054688 15.140625 -15.234375 C 14.804688 -15.421875 14.28125 -15.515625 13.5625 -15.515625 L 9.75 -15.515625 L 9.75 0 L 4.75 0 L 4.75 -37.1875 L 15.25 -37.1875 C 17.601562 -37.1875 19.632812 -36.945312 21.34375 -36.46875 C 23.0625 -35.988281 24.476562 -35.296875 25.59375 -34.390625 C 26.707031 -33.492188 27.53125 -32.410156 28.0625 -31.140625 C 28.601562 -29.867188 28.875 -28.445312 28.875 -26.875 C 28.875 -25.5625 28.664062 -24.332031 28.25 -23.1875 C 27.832031 -22.050781 27.226562 -21.03125 26.4375 -20.125 C 25.65625 -19.21875 24.695312 -18.441406 23.5625 -17.796875 C 22.4375 -17.160156 21.15625 -16.675781 19.71875 -16.34375 C 20.351562 -15.976562 20.90625 -15.453125 21.375 -14.765625 Z M 32.21875 0 "/></g></g></g><g fill="#fcd7ff" fill-opacity="1"><g transform="translate(279.004877, 199.543259)"><g><path d="M 24.5 -13.796875 L 18.65625 -28.921875 C 18.476562 -29.378906 18.296875 -29.90625 18.109375 -30.5 C 17.921875 -31.09375 17.738281 -31.726562 17.5625 -32.40625 C 17.195312 -31 16.828125 -29.832031 16.453125 -28.90625 L 10.609375 -13.796875 Z M 34.96875 0 L 31.078125 0 C 30.628906 0 30.265625 -0.109375 29.984375 -0.328125 C 29.710938 -0.554688 29.507812 -0.84375 29.375 -1.1875 L 25.890625 -10.171875 L 9.203125 -10.171875 L 5.734375 -1.1875 C 5.628906 -0.875 5.429688 -0.597656 5.140625 -0.359375 C 4.847656 -0.117188 4.484375 0 4.046875 0 L 0.15625 0 L 15.015625 -37.1875 L 20.109375 -37.1875 Z M 34.96875 0 "/></g></g></g><path fill="#ffffff" d="M 210.945312 177.765625 C 210.945312 170 217.242188 163.699219 225.011719 163.699219 C 228.5625 163.699219 231.808594 165.015625 234.285156 167.1875 C 231.589844 163.015625 226.898438 160.25 221.5625 160.25 C 213.207031 160.25 206.433594 167.023438 206.433594 175.378906 C 206.433594 182.636719 211.546875 188.703125 218.367188 190.167969 C 213.949219 187.796875 210.945312 183.132812 210.945312 177.765625 " fill-opacity="1" fill-rule="nonzero"/><g clip-path="url(#386776a65c)"><path fill="#ffffff" d="M 239.539062 156.570312 C 239.261719 156.46875 239.140625 156.757812 239.09375 157.148438 C 239 157.90625 239.304688 158.660156 239.882812 159.167969 C 245.914062 164.453125 244.742188 177.398438 240.800781 176.628906 C 238.210938 176.121094 240.96875 168.429688 238.8125 168.167969 C 237.378906 167.992188 236.105469 171.558594 236.195312 176.261719 C 236.246094 178.949219 237.113281 181.171875 237.871094 183.097656 C 238.96875 185.890625 237.960938 189.085938 235.429688 190.699219 C 227.382812 195.832031 216.578125 194.886719 209.546875 187.859375 C 205.835938 184.144531 203.820312 179.375 203.503906 174.515625 C 201.949219 181.710938 203.976562 189.523438 209.582031 195.105469 C 216.648438 202.144531 227.929688 203.609375 236.566406 198.621094 C 244.761719 193.886719 248.191406 184.144531 248.679688 175.089844 C 249.300781 163.570312 242.6875 157.757812 239.539062 156.570312 Z M 238.410156 162.875 C 241.542969 165.628906 242.730469 170.449219 242.589844 174.335938 C 243.082031 173.132812 243.347656 171.367188 243.289062 169.480469 C 243.207031 166.953125 242.605469 164.589844 241.601562 162.671875 C 240.300781 161.421875 239.019531 160.632812 238.0625 160.269531 C 237.777344 160.164062 237.65625 160.46875 237.609375 160.875 C 237.523438 161.632812 237.839844 162.371094 238.410156 162.875 " fill-opacity="1" fill-rule="nonzero"/></g><g clip-path="url(#aa4101c2d6)"><g clip-path="url(#f6442bb79b)"><path fill="#ff00c7" d="M 215.710938 171.347656 L 235.519531 171.347656 L 235.519531 188.738281 L 215.710938 188.738281 Z M 215.710938 171.347656 " fill-opacity="1" fill-rule="nonzero"/></g></g><g mask="url(#0ec2e35a1a)"><g transform="matrix(1, 0, 0, 1, 217, 174)"><g clip-path="url(#d0372324b5)"><g clip-path="url(#31c031fe9e)"><g clip-path="url(#e958bbf672)"><path fill="#ff00c7" d="M 0.734375 0.898438 L 16.5 0.898438 L 16.5 14.738281 L 0.734375 14.738281 Z M 0.734375 0.898438 " fill-opacity="1" fill-rule="nonzero"/></g></g></g></g></g></svg>