<svg xmlns="http://www.w3.org/2000/svg" xmlns:xlink="http://www.w3.org/1999/xlink" width="500" zoomAndPan="magnify" viewBox="0 0 375 374.999991" height="500" preserveAspectRatio="xMidYMid meet" version="1.0"><defs><filter x="0%" y="0%" width="100%" height="100%" id="22840ccf24"><feColorMatrix values="0 0 0 0 1 0 0 0 0 1 0 0 0 0 1 0 0 0 1 0" color-interpolation-filters="sRGB"/></filter><g/><clipPath id="aca6d638e0"><path d="M 74 121 L 150 121 L 150 208 L 74 208 Z M 74 121 " clip-rule="nonzero"/></clipPath><clipPath id="9f98aaea58"><path d="M 74.90625 120.410156 L 149.890625 121.917969 L 147.222656 254.640625 L 72.238281 253.132812 Z M 74.90625 120.410156 " clip-rule="nonzero"/></clipPath><clipPath id="2208d42c0c"><path d="M 149.527344 121.910156 L 74.542969 120.402344 L 71.875 253.125 L 146.859375 254.632812 Z M 149.527344 121.910156 " clip-rule="nonzero"/></clipPath><clipPath id="a378fb4566"><path d="M 95 176 L 137 176 L 137 252 L 95 252 Z M 95 176 " clip-rule="nonzero"/></clipPath><clipPath id="4637f2174e"><path d="M 74.90625 120.410156 L 149.890625 121.917969 L 147.222656 254.640625 L 72.238281 253.132812 Z M 74.90625 120.410156 " clip-rule="nonzero"/></clipPath><clipPath id="87e0a127ec"><path d="M 149.527344 121.910156 L 74.542969 120.402344 L 71.875 253.125 L 146.859375 254.632812 Z M 149.527344 121.910156 " clip-rule="nonzero"/></clipPath><clipPath id="dbab9ff936"><path d="M 95 176 L 131 176 L 131 252 L 95 252 Z M 95 176 " clip-rule="nonzero"/></clipPath><clipPath id="4b3c40e967"><path d="M 74.90625 120.410156 L 149.890625 121.917969 L 147.222656 254.640625 L 72.238281 253.132812 Z M 74.90625 120.410156 " clip-rule="nonzero"/></clipPath><clipPath id="6bfb6008fe"><path d="M 149.527344 121.910156 L 74.542969 120.402344 L 71.875 253.125 L 146.859375 254.632812 Z M 149.527344 121.910156 " clip-rule="nonzero"/></clipPath><clipPath id="a8989483d1"><path d="M 103 210 L 135 210 L 135 254 L 103 254 Z M 103 210 " clip-rule="nonzero"/></clipPath><clipPath id="0ccebba4fe"><path d="M 74.90625 120.410156 L 149.890625 121.917969 L 147.222656 254.640625 L 72.238281 253.132812 Z M 74.90625 120.410156 " clip-rule="nonzero"/></clipPath><clipPath id="0ef6e437da"><path d="M 149.527344 121.910156 L 74.542969 120.402344 L 71.875 253.125 L 146.859375 254.632812 Z M 149.527344 121.910156 " clip-rule="nonzero"/></clipPath><clipPath id="2cb07efce3"><path d="M 79 172 L 105 172 L 105 188 L 79 188 Z M 79 172 " clip-rule="nonzero"/></clipPath><clipPath id="f5fe25205b"><path d="M 74.90625 120.410156 L 149.890625 121.917969 L 147.222656 254.640625 L 72.238281 253.132812 Z M 74.90625 120.410156 " clip-rule="nonzero"/></clipPath><clipPath id="c400c1cb68"><path d="M 149.527344 121.910156 L 74.542969 120.402344 L 71.875 253.125 L 146.859375 254.632812 Z M 149.527344 121.910156 " clip-rule="nonzero"/></clipPath><clipPath id="772805c5a7"><path d="M 83 186 L 105 186 L 105 195 L 83 195 Z M 83 186 " clip-rule="nonzero"/></clipPath><clipPath id="f537706ac1"><path d="M 74.90625 120.410156 L 149.890625 121.917969 L 147.222656 254.640625 L 72.238281 253.132812 Z M 74.90625 120.410156 " clip-rule="nonzero"/></clipPath><clipPath id="d07d0d7621"><path d="M 149.527344 121.910156 L 74.542969 120.402344 L 71.875 253.125 L 146.859375 254.632812 Z M 149.527344 121.910156 " clip-rule="nonzero"/></clipPath><clipPath id="3013239f5f"><path d="M 106 143 L 121 143 L 121 162 L 106 162 Z M 106 143 " clip-rule="nonzero"/></clipPath><clipPath id="8e19180542"><path d="M 74.90625 120.410156 L 149.890625 121.917969 L 147.222656 254.640625 L 72.238281 253.132812 Z M 74.90625 120.410156 " clip-rule="nonzero"/></clipPath><clipPath id="9dd2f43c15"><path d="M 149.527344 121.910156 L 74.542969 120.402344 L 71.875 253.125 L 146.859375 254.632812 Z M 149.527344 121.910156 " clip-rule="nonzero"/></clipPath><clipPath id="e7634ca1bd"><path d="M 217.691406 178.804688 L 237.542969 178.804688 L 237.542969 196.195312 L 217.691406 196.195312 Z M 217.691406 178.804688 " clip-rule="nonzero"/></clipPath><clipPath id="2eb1ec1669"><path d="M 217.691406 183.933594 C 217.691406 189.460938 227.605469 196.195312 227.605469 196.195312 C 227.605469 196.195312 237.476562 189.410156 237.519531 183.933594 C 237.519531 181.105469 235.21875 178.804688 232.390625 178.804688 C 230.214844 178.804688 228.34375 180.195312 227.605469 182.105469 C 226.871094 180.195312 224.996094 178.804688 222.824219 178.804688 C 219.996094 178.804688 217.691406 181.105469 217.691406 183.933594 " clip-rule="nonzero"/></clipPath><mask id="0f61b06694"><g filter="url(#22840ccf24)"><rect x="-37.5" width="450" fill="#000000" y="-37.499999" height="449.999989" fill-opacity="0.82"/></g></mask><clipPath id="52e8a60383"><path d="M 0.714844 0.355469 L 16.515625 0.355469 L 16.515625 14.195312 L 0.714844 14.195312 Z M 0.714844 0.355469 " clip-rule="nonzero"/></clipPath><clipPath id="d350547fc6"><path d="M 0.714844 4.4375 C 0.714844 8.835938 8.605469 14.195312 8.605469 14.195312 C 8.605469 14.195312 16.460938 8.796875 16.496094 4.4375 C 16.496094 2.1875 14.664062 0.355469 12.414062 0.355469 C 10.683594 0.355469 9.195312 1.460938 8.605469 2.984375 C 8.019531 1.460938 6.53125 0.355469 4.800781 0.355469 C 2.550781 0.355469 0.714844 2.1875 0.714844 4.4375 " clip-rule="nonzero"/></clipPath><clipPath id="c3c73a0c63"><rect x="0" width="17" y="0" height="15"/></clipPath></defs><g clip-path="url(#aca6d638e0)"><g clip-path="url(#9f98aaea58)"><g clip-path="url(#2208d42c0c)"><path fill="#ff66c4" d="M 106.78125 180.113281 C 107.453125 184.667969 106.890625 188.375 105.34375 192.316406 C 103.613281 196.726562 101.355469 201.285156 101.28125 207.007812 C 103.332031 204.609375 105.726562 202.484375 108.460938 200.65625 C 113.617188 197.21875 117.359375 194.421875 120.082031 191.105469 C 122.125 188.617188 123.605469 186.363281 124.683594 184.417969 C 124.824219 183.46875 124.984375 182.492188 125.164062 181.464844 C 127.523438 167.859375 138.140625 147.386719 149.503906 121.910156 C 143.707031 128.992188 125.871094 162.1875 116.21875 164.558594 C 106.71875 166.898438 74.589844 140.585938 74.515625 140.457031 C 88.46875 158.785156 104.996094 167.972656 106.78125 180.113281 Z M 106.78125 180.113281 " fill-opacity="1" fill-rule="nonzero"/></g></g></g><g clip-path="url(#a378fb4566)"><g clip-path="url(#4637f2174e)"><g clip-path="url(#87e0a127ec)"><path fill="#ffffff" d="M 126.667969 221.578125 C 134.238281 212.265625 138.226562 196.003906 134.855469 181.691406 C 134.855469 181.691406 135.164062 206.128906 111.09375 222.808594 C 111.09375 222.808594 131.5 204.445312 130.367188 176.992188 C 130.367188 176.992188 130.050781 183.429688 122.277344 192.90625 C 119.238281 196.609375 115.148438 199.609375 110.039062 203.019531 C 86.683594 218.597656 98.265625 251.289062 98.265625 251.289062 C 103.230469 237.832031 117.617188 232.714844 126.667969 221.578125 Z M 126.667969 221.578125 " fill-opacity="1" fill-rule="nonzero"/></g></g></g><g clip-path="url(#dbab9ff936)"><g clip-path="url(#4b3c40e967)"><g clip-path="url(#6bfb6008fe)"><path fill="#ffffff" d="M 110.039062 203.019531 C 115.148438 199.609375 119.238281 196.609375 122.277344 192.90625 C 130.050781 183.429688 130.367188 176.992188 130.367188 176.992188 C 130.367188 176.992188 130.621094 183.433594 123.707031 193.554688 C 121.007812 197.511719 117.199219 200.863281 112.410156 204.707031 C 98.003906 216.273438 97.894531 235.503906 98.265625 251.289062 C 98.265625 251.289062 86.683594 218.597656 110.039062 203.019531 Z M 110.039062 203.019531 " fill-opacity="1" fill-rule="nonzero"/></g></g></g><g clip-path="url(#a8989483d1)"><g clip-path="url(#0ccebba4fe)"><g clip-path="url(#0ef6e437da)"><path fill="#ffffff" d="M 128.75 224.578125 C 121.234375 235.589844 108.699219 241.808594 103.890625 253.722656 C 110.316406 246.414062 119.578125 241.351562 125.996094 233.179688 C 130.464844 227.492188 133.585938 219.300781 134.570312 210.570312 C 133.375 215.878906 131.375 220.726562 128.75 224.578125 Z M 128.75 224.578125 " fill-opacity="1" fill-rule="nonzero"/></g></g></g><g clip-path="url(#2cb07efce3)"><g clip-path="url(#f5fe25205b)"><g clip-path="url(#c400c1cb68)"><path fill="#ffffff" d="M 93.949219 175.234375 C 98.191406 176.464844 102.808594 180.546875 104.789062 185.582031 C 104.789062 185.582031 99.757812 178.125 88.980469 178.128906 C 88.980469 178.128906 99.003906 179.402344 104.417969 187.941406 C 104.417969 187.941406 102.972656 186.0625 98.632812 184.828125 C 96.9375 184.34375 95.070312 184.292969 92.8125 184.335938 C 82.480469 184.519531 79.128906 172.207031 79.128906 172.207031 C 83.453125 175.234375 88.875 173.765625 93.949219 175.234375 Z M 93.949219 175.234375 " fill-opacity="1" fill-rule="nonzero"/></g></g></g><g clip-path="url(#772805c5a7)"><g clip-path="url(#f537706ac1)"><g clip-path="url(#d07d0d7621)"><path fill="#ffffff" d="M 93.738281 187.316406 C 96.667969 186.394531 100.910156 186.984375 103.992188 189.136719 C 103.992188 189.136719 98.214844 186.753906 91.976562 190.902344 C 91.976562 190.902344 98.269531 187.785156 104.6875 190.648438 C 104.6875 190.648438 103.125 190.113281 100.140625 191.066406 C 98.972656 191.441406 97.871094 192.128906 96.578125 193.023438 C 90.671875 197.101562 83.992188 191.261719 83.992188 191.261719 C 87.660156 191.351562 90.238281 188.414062 93.738281 187.316406 Z M 93.738281 187.316406 " fill-opacity="1" fill-rule="nonzero"/></g></g></g><g clip-path="url(#3013239f5f)"><g clip-path="url(#8e19180542)"><g clip-path="url(#9dd2f43c15)"><path fill="#ff66c4" d="M 120.832031 151.101562 C 120.738281 150.53125 120.597656 149.972656 120.410156 149.429688 C 120.226562 148.886719 120 148.367188 119.730469 147.867188 C 119.460938 147.371094 119.15625 146.910156 118.8125 146.476562 C 118.472656 146.046875 118.101562 145.660156 117.699219 145.3125 C 117.296875 144.964844 116.871094 144.664062 116.425781 144.414062 C 115.980469 144.160156 115.519531 143.960938 115.042969 143.816406 C 114.570312 143.671875 114.09375 143.582031 113.609375 143.546875 C 113.125 143.511719 112.648438 143.535156 112.171875 143.613281 C 111.699219 143.691406 111.238281 143.824219 110.792969 144.015625 C 110.347656 144.203125 109.921875 144.441406 109.519531 144.734375 C 109.117188 145.023438 108.746094 145.359375 108.40625 145.742188 C 108.0625 146.125 107.757812 146.542969 107.492188 147.003906 C 107.222656 147.460938 106.996094 147.949219 106.8125 148.46875 C 106.625 148.988281 106.488281 149.523438 106.394531 150.082031 C 106.300781 150.636719 106.253906 151.203125 106.253906 151.777344 C 106.253906 152.351562 106.300781 152.925781 106.394531 153.496094 C 106.488281 154.066406 106.628906 154.621094 106.816406 155.167969 C 107 155.710938 107.226562 156.230469 107.496094 156.726562 C 107.765625 157.222656 108.070312 157.6875 108.410156 158.117188 C 108.753906 158.546875 109.125 158.9375 109.527344 159.285156 C 109.929688 159.632812 110.355469 159.933594 110.800781 160.183594 C 111.246094 160.433594 111.707031 160.632812 112.179688 160.78125 C 112.65625 160.925781 113.132812 161.015625 113.617188 161.050781 C 114.101562 161.082031 114.578125 161.0625 115.054688 160.984375 C 115.527344 160.902344 115.988281 160.769531 116.433594 160.582031 C 116.878906 160.394531 117.304688 160.152344 117.707031 159.863281 C 118.109375 159.574219 118.480469 159.234375 118.820312 158.855469 C 119.160156 158.472656 119.46875 158.050781 119.734375 157.59375 C 120.003906 157.132812 120.230469 156.644531 120.414062 156.128906 C 120.597656 155.609375 120.738281 155.074219 120.832031 154.515625 C 120.925781 153.957031 120.972656 153.394531 120.972656 152.816406 C 120.972656 152.242188 120.925781 151.671875 120.832031 151.101562 Z M 120.832031 151.101562 " fill-opacity="1" fill-rule="nonzero"/></g></g></g><g fill="#f8a5ff" fill-opacity="1"><g transform="translate(66.356719, 199.543259)"><g><path d="M 23.765625 -31.375 C 23.609375 -31.113281 23.4375 -30.914062 23.25 -30.78125 C 23.070312 -30.65625 22.851562 -30.59375 22.59375 -30.59375 C 22.300781 -30.59375 21.957031 -30.738281 21.5625 -31.03125 C 21.164062 -31.320312 20.664062 -31.644531 20.0625 -32 C 19.46875 -32.351562 18.75 -32.675781 17.90625 -32.96875 C 17.070312 -33.269531 16.054688 -33.421875 14.859375 -33.421875 C 13.742188 -33.421875 12.753906 -33.269531 11.890625 -32.96875 C 11.035156 -32.664062 10.316406 -32.253906 9.734375 -31.734375 C 9.160156 -31.210938 8.722656 -30.597656 8.421875 -29.890625 C 8.128906 -29.191406 7.984375 -28.4375 7.984375 -27.625 C 7.984375 -26.59375 8.238281 -25.734375 8.75 -25.046875 C 9.257812 -24.367188 9.929688 -23.785156 10.765625 -23.296875 C 11.609375 -22.816406 12.5625 -22.398438 13.625 -22.046875 C 14.695312 -21.691406 15.789062 -21.320312 16.90625 -20.9375 C 18.019531 -20.550781 19.109375 -20.117188 20.171875 -19.640625 C 21.234375 -19.171875 22.179688 -18.570312 23.015625 -17.84375 C 23.859375 -17.125 24.535156 -16.234375 25.046875 -15.171875 C 25.554688 -14.117188 25.8125 -12.820312 25.8125 -11.28125 C 25.8125 -9.65625 25.535156 -8.128906 24.984375 -6.703125 C 24.429688 -5.273438 23.625 -4.035156 22.5625 -2.984375 C 21.5 -1.929688 20.191406 -1.097656 18.640625 -0.484375 C 17.085938 0.117188 15.328125 0.421875 13.359375 0.421875 C 10.941406 0.421875 8.742188 -0.015625 6.765625 -0.890625 C 4.796875 -1.765625 3.113281 -2.945312 1.71875 -4.4375 L 3.171875 -6.828125 C 3.304688 -7.015625 3.472656 -7.171875 3.671875 -7.296875 C 3.867188 -7.429688 4.085938 -7.5 4.328125 -7.5 C 4.554688 -7.5 4.8125 -7.40625 5.09375 -7.21875 C 5.382812 -7.039062 5.707031 -6.8125 6.0625 -6.53125 C 6.425781 -6.257812 6.84375 -5.957031 7.3125 -5.625 C 7.78125 -5.300781 8.3125 -5 8.90625 -4.71875 C 9.507812 -4.445312 10.191406 -4.21875 10.953125 -4.03125 C 11.710938 -3.851562 12.566406 -3.765625 13.515625 -3.765625 C 14.710938 -3.765625 15.773438 -3.925781 16.703125 -4.25 C 17.640625 -4.582031 18.429688 -5.046875 19.078125 -5.640625 C 19.734375 -6.234375 20.234375 -6.945312 20.578125 -7.78125 C 20.921875 -8.613281 21.09375 -9.539062 21.09375 -10.5625 C 21.09375 -11.6875 20.835938 -12.609375 20.328125 -13.328125 C 19.816406 -14.046875 19.144531 -14.644531 18.3125 -15.125 C 17.488281 -15.613281 16.539062 -16.023438 15.46875 -16.359375 C 14.394531 -16.691406 13.300781 -17.035156 12.1875 -17.390625 C 11.082031 -17.742188 9.992188 -18.15625 8.921875 -18.625 C 7.847656 -19.09375 6.894531 -19.695312 6.0625 -20.4375 C 5.238281 -21.1875 4.570312 -22.117188 4.0625 -23.234375 C 3.550781 -24.347656 3.296875 -25.726562 3.296875 -27.375 C 3.296875 -28.6875 3.550781 -29.957031 4.0625 -31.1875 C 4.570312 -32.414062 5.3125 -33.503906 6.28125 -34.453125 C 7.257812 -35.398438 8.460938 -36.160156 9.890625 -36.734375 C 11.316406 -37.304688 12.957031 -37.59375 14.8125 -37.59375 C 16.882812 -37.59375 18.773438 -37.265625 20.484375 -36.609375 C 22.191406 -35.953125 23.691406 -35 24.984375 -33.75 Z M 23.765625 -31.375 "/></g></g></g><g fill="#f8a5ff" fill-opacity="1"><g transform="translate(91.294218, 199.543259)"><g/></g></g><g fill="#f8a5ff" fill-opacity="1"><g transform="translate(101.357963, 199.543259)"><g/></g></g><g fill="#f8a5ff" fill-opacity="1"><g transform="translate(111.421707, 199.543259)"><g/></g></g><g fill="#f8a5ff" fill-opacity="1"><g transform="translate(121.485452, 199.543259)"><g/></g></g><g fill="#f8a5ff" fill-opacity="1"><g transform="translate(131.55984, 199.543259)"><g><path d="M 34.875 -37.1875 L 34.875 0 L 32.359375 0 C 31.953125 0 31.613281 -0.0664062 31.34375 -0.203125 C 31.082031 -0.347656 30.820312 -0.582031 30.5625 -0.90625 L 9.0625 -28.921875 C 9.09375 -28.492188 9.113281 -28.070312 9.125 -27.65625 C 9.144531 -27.238281 9.15625 -26.847656 9.15625 -26.484375 L 9.15625 0 L 4.75 0 L 4.75 -37.1875 L 7.34375 -37.1875 C 7.570312 -37.1875 7.757812 -37.171875 7.90625 -37.140625 C 8.0625 -37.117188 8.203125 -37.078125 8.328125 -37.015625 C 8.453125 -36.953125 8.570312 -36.863281 8.6875 -36.75 C 8.8125 -36.632812 8.941406 -36.492188 9.078125 -36.328125 L 30.59375 -8.328125 C 30.550781 -8.773438 30.515625 -9.210938 30.484375 -9.640625 C 30.460938 -10.066406 30.453125 -10.46875 30.453125 -10.84375 L 30.453125 -37.1875 Z M 34.875 -37.1875 "/></g></g></g><g fill="#f8a5ff" fill-opacity="1"><g transform="translate(167.952136, 199.543259)"><g><path d="M 30.84375 -7.6875 C 31.125 -7.6875 31.367188 -7.570312 31.578125 -7.34375 L 33.578125 -5.1875 C 32.054688 -3.425781 30.207031 -2.050781 28.03125 -1.0625 C 25.863281 -0.0703125 23.238281 0.421875 20.15625 0.421875 C 17.488281 0.421875 15.066406 -0.0390625 12.890625 -0.96875 C 10.710938 -1.894531 8.851562 -3.191406 7.3125 -4.859375 C 5.769531 -6.535156 4.578125 -8.539062 3.734375 -10.875 C 2.890625 -13.207031 2.46875 -15.773438 2.46875 -18.578125 C 2.46875 -21.378906 2.90625 -23.945312 3.78125 -26.28125 C 4.664062 -28.613281 5.90625 -30.617188 7.5 -32.296875 C 9.101562 -33.972656 11.019531 -35.273438 13.25 -36.203125 C 15.488281 -37.128906 17.957031 -37.59375 20.65625 -37.59375 C 23.300781 -37.59375 25.632812 -37.164062 27.65625 -36.3125 C 29.675781 -35.46875 31.457031 -34.320312 33 -32.875 L 31.34375 -30.5625 C 31.238281 -30.382812 31.101562 -30.238281 30.9375 -30.125 C 30.769531 -30.019531 30.550781 -29.96875 30.28125 -29.96875 C 29.96875 -29.96875 29.585938 -30.132812 29.140625 -30.46875 C 28.691406 -30.8125 28.101562 -31.1875 27.375 -31.59375 C 26.644531 -32.007812 25.734375 -32.382812 24.640625 -32.71875 C 23.554688 -33.0625 22.21875 -33.234375 20.625 -33.234375 C 18.707031 -33.234375 16.953125 -32.898438 15.359375 -32.234375 C 13.765625 -31.566406 12.390625 -30.601562 11.234375 -29.34375 C 10.085938 -28.082031 9.195312 -26.539062 8.5625 -24.71875 C 7.925781 -22.90625 7.609375 -20.859375 7.609375 -18.578125 C 7.609375 -16.253906 7.9375 -14.1875 8.59375 -12.375 C 9.257812 -10.5625 10.164062 -9.023438 11.3125 -7.765625 C 12.46875 -6.515625 13.828125 -5.5625 15.390625 -4.90625 C 16.960938 -4.25 18.65625 -3.921875 20.46875 -3.921875 C 21.570312 -3.921875 22.566406 -3.984375 23.453125 -4.109375 C 24.347656 -4.242188 25.171875 -4.445312 25.921875 -4.71875 C 26.679688 -5 27.382812 -5.347656 28.03125 -5.765625 C 28.675781 -6.191406 29.320312 -6.703125 29.96875 -7.296875 C 30.257812 -7.554688 30.550781 -7.6875 30.84375 -7.6875 Z M 30.84375 -7.6875 "/></g></g></g><g fill="#f8a5ff" fill-opacity="1"><g transform="translate(199.399683, 199.543259)"><g/></g></g><g fill="#f8a5ff" fill-opacity="1"><g transform="translate(209.463428, 199.543259)"><g/></g></g><g fill="#f8a5ff" fill-opacity="1"><g transform="translate(219.527173, 199.543259)"><g/></g></g><g fill="#f8a5ff" fill-opacity="1"><g transform="translate(229.590918, 199.543259)"><g/></g></g><g fill="#f8a5ff" fill-opacity="1"><g transform="translate(239.654662, 199.543259)"><g/></g></g><g fill="#f8a5ff" fill-opacity="1"><g transform="translate(249.719992, 199.543259)"><g><path d="M 15.046875 -19.171875 C 16.503906 -19.171875 17.789062 -19.347656 18.90625 -19.703125 C 20.019531 -20.054688 20.953125 -20.554688 21.703125 -21.203125 C 22.453125 -21.859375 23.015625 -22.632812 23.390625 -23.53125 C 23.773438 -24.425781 23.96875 -25.421875 23.96875 -26.515625 C 23.96875 -28.734375 23.238281 -30.398438 21.78125 -31.515625 C 20.332031 -32.640625 18.15625 -33.203125 15.25 -33.203125 L 9.75 -33.203125 L 9.75 -19.171875 Z M 32.21875 0 L 27.765625 0 C 26.847656 0 26.171875 -0.351562 25.734375 -1.0625 L 16.09375 -14.34375 C 15.789062 -14.757812 15.472656 -15.054688 15.140625 -15.234375 C 14.804688 -15.421875 14.28125 -15.515625 13.5625 -15.515625 L 9.75 -15.515625 L 9.75 0 L 4.75 0 L 4.75 -37.1875 L 15.25 -37.1875 C 17.601562 -37.1875 19.632812 -36.945312 21.34375 -36.46875 C 23.0625 -35.988281 24.476562 -35.296875 25.59375 -34.390625 C 26.707031 -33.492188 27.53125 -32.410156 28.0625 -31.140625 C 28.601562 -29.867188 28.875 -28.445312 28.875 -26.875 C 28.875 -25.5625 28.664062 -24.332031 28.25 -23.1875 C 27.832031 -22.050781 27.226562 -21.03125 26.4375 -20.125 C 25.65625 -19.21875 24.695312 -18.441406 23.5625 -17.796875 C 22.4375 -17.160156 21.15625 -16.675781 19.71875 -16.34375 C 20.351562 -15.976562 20.90625 -15.453125 21.375 -14.765625 Z M 32.21875 0 "/></g></g></g><g fill="#f8a5ff" fill-opacity="1"><g transform="translate(279.004877, 199.543259)"><g><path d="M 24.5 -13.796875 L 18.65625 -28.921875 C 18.476562 -29.378906 18.296875 -29.90625 18.109375 -30.5 C 17.921875 -31.09375 17.738281 -31.726562 17.5625 -32.40625 C 17.195312 -31 16.828125 -29.832031 16.453125 -28.90625 L 10.609375 -13.796875 Z M 34.96875 0 L 31.078125 0 C 30.628906 0 30.265625 -0.109375 29.984375 -0.328125 C 29.710938 -0.554688 29.507812 -0.84375 29.375 -1.1875 L 25.890625 -10.171875 L 9.203125 -10.171875 L 5.734375 -1.1875 C 5.628906 -0.875 5.429688 -0.597656 5.140625 -0.359375 C 4.847656 -0.117188 4.484375 0 4.046875 0 L 0.15625 0 L 15.015625 -37.1875 L 20.109375 -37.1875 Z M 34.96875 0 "/></g></g></g><path fill="#ff66c4" d="M 212.925781 185.226562 C 212.925781 177.457031 219.222656 171.160156 226.996094 171.160156 C 230.546875 171.160156 233.792969 172.476562 236.265625 174.648438 C 233.574219 170.472656 228.882812 167.707031 223.542969 167.707031 C 215.1875 167.707031 208.414062 174.480469 208.414062 182.839844 C 208.414062 190.097656 213.527344 196.164062 220.347656 197.628906 C 215.929688 195.257812 212.925781 190.59375 212.925781 185.226562 " fill-opacity="1" fill-rule="nonzero"/><path fill="#ff66c4" d="M 241.527344 164.027344 C 241.25 163.921875 241.125 164.214844 241.078125 164.601562 C 240.984375 165.363281 241.289062 166.117188 241.867188 166.625 C 247.898438 171.910156 246.726562 184.859375 242.785156 184.089844 C 240.195312 183.582031 242.953125 175.886719 240.796875 175.625 C 239.363281 175.453125 238.089844 179.015625 238.179688 183.71875 C 238.230469 186.410156 239.097656 188.632812 239.855469 190.558594 C 240.953125 193.351562 239.945312 196.546875 237.414062 198.160156 C 229.367188 203.296875 218.558594 202.351562 211.527344 195.320312 C 207.816406 191.605469 205.800781 186.835938 205.480469 181.976562 C 203.929688 189.171875 205.957031 196.988281 211.5625 202.570312 C 218.628906 209.609375 229.914062 211.074219 238.550781 206.085938 C 246.75 201.351562 250.179688 191.605469 250.667969 182.550781 C 251.289062 171.027344 244.675781 165.214844 241.527344 164.027344 Z M 240.394531 170.332031 C 243.53125 173.085938 244.714844 177.910156 244.574219 181.796875 C 245.066406 180.589844 245.335938 178.828125 245.273438 176.9375 C 245.191406 174.414062 244.589844 172.046875 243.585938 170.132812 C 242.285156 168.882812 241.003906 168.089844 240.046875 167.730469 C 239.761719 167.621094 239.640625 167.925781 239.59375 168.332031 C 239.507812 169.089844 239.824219 169.828125 240.394531 170.332031 " fill-opacity="1" fill-rule="nonzero"/><g clip-path="url(#e7634ca1bd)"><g clip-path="url(#2eb1ec1669)"><path fill="#f8a5ff" d="M 217.691406 178.804688 L 237.503906 178.804688 L 237.503906 196.195312 L 217.691406 196.195312 Z M 217.691406 178.804688 " fill-opacity="1" fill-rule="nonzero"/></g></g><g mask="url(#0f61b06694)"><g transform="matrix(1, 0, 0, 1, 219, 182)"><g clip-path="url(#c3c73a0c63)"><g clip-path="url(#52e8a60383)"><g clip-path="url(#d350547fc6)"><path fill="#ffffff" d="M 0.714844 0.355469 L 16.484375 0.355469 L 16.484375 14.195312 L 0.714844 14.195312 Z M 0.714844 0.355469 " fill-opacity="1" fill-rule="nonzero"/></g></g></g></g></g></svg>