<svg version="1.1" id="Layer_1" xmlns="http://www.w3.org/2000/svg" xmlns:xlink="http://www.w3.org/1999/xlink" x="0px" y="0px"
	 width="100%" viewBox="0 0 288 288" enable-background="new 0 0 288 288" xml:space="preserve">
<path fill="#000000" opacity="1.000000" stroke="none" 
	d="
M181.364471,47.505920 
	C163.511505,40.032207 141.488174,53.652626 143.495651,75.784492 
	C144.638275,88.381737 152.371765,97.417595 162.131271,104.726921 
	C169.989792,110.612511 178.974640,114.776360 186.759445,120.851410 
	C214.368332,142.396652 214.327942,180.661957 186.519608,201.933273 
	C185.760773,202.513702 184.971008,203.286163 183.573074,202.414093 
	C183.655472,200.067627 185.722488,199.016571 187.145187,197.585159 
	C201.029663,183.615555 205.037979,161.170715 196.421738,145.569092 
	C190.066833,134.062103 180.332733,126.171471 168.906479,120.236137 
	C155.113388,113.071358 143.580551,103.821320 137.164688,89.079796 
	C131.296539,75.596733 134.151413,58.540318 144.445847,48.366394 
	C154.727829,38.204773 170.732574,35.703423 184.238373,42.147270 
	C195.861038,47.692654 202.652512,62.804649 198.901138,74.962898 
	C198.550293,76.100014 198.565613,77.727402 196.249405,78.150658 
	C198.581314,64.509102 194.542023,53.892578 181.364471,47.505920 
z"/>
<path fill="#000000" opacity="1.000000" stroke="none" 
	d="
M102.188774,57.364052 
	C105.091286,51.097084 109.041260,46.109230 113.697243,41.493973 
	C115.305298,43.205902 113.936729,43.992142 113.407761,44.816647 
	C95.782555,72.288857 101.053925,99.053329 127.867844,117.808731 
	C134.411331,122.385681 141.291840,126.509865 147.614304,131.366928 
	C156.947021,138.536545 163.921753,147.529938 166.373962,159.388062 
	C171.376129,183.576965 153.216309,204.428482 127.997551,203.511826 
	C111.232071,202.902435 97.137665,190.161026 94.965607,173.622452 
	C94.423553,169.495102 94.899429,165.561432 97.413200,161.963120 
	C96.590225,169.958679 98.456810,177.110809 103.000229,183.588730 
	C110.836075,194.760925 124.985779,199.296646 137.941742,194.761871 
	C150.675064,190.305054 158.722870,178.352737 157.609619,164.993378 
	C156.737625,154.529343 150.724136,146.866211 143.194870,140.156921 
	C138.193985,135.700668 132.340988,132.452515 126.934280,128.572388 
	C120.272171,123.791283 114.043961,118.529266 109.060806,111.979561 
	C96.340179,95.259895 92.896255,77.283958 102.188774,57.364052 
z"/>
<path fill="#000000" opacity="1.000000" stroke="none" 
	d="
M65.287399,244.211182 
	C67.114418,248.277725 69.091194,251.669754 73.970634,251.676651 
	C76.345306,251.680008 78.270172,250.844299 79.335625,248.731842 
	C80.520485,246.382629 79.338478,244.401917 77.535156,243.061172 
	C74.610641,240.886841 71.459663,239.017746 68.410927,237.009735 
	C64.034149,234.126984 62.418938,229.817429 64.069420,225.458359 
	C65.425209,221.877533 70.254219,219.445084 74.853752,220.026108 
	C82.751915,221.023804 85.317924,224.256195 83.420502,230.907318 
	C81.342461,230.846481 81.576080,228.845825 80.847847,227.726791 
	C79.334358,225.401123 77.616325,223.492477 74.616508,223.346924 
	C72.189110,223.229156 69.751740,223.462189 68.668640,225.984024 
	C67.626930,228.409454 69.238770,230.202881 71.030876,231.476730 
	C74.001167,233.588013 77.096664,235.538940 80.238426,237.389313 
	C84.311974,239.788452 86.136276,243.188599 85.056000,247.830200 
	C83.927589,252.678635 80.158829,254.272430 75.740166,254.642227 
	C66.995590,255.374008 61.167114,249.850082 63.968479,243.607590 
	C64.013466,243.507339 64.273109,243.406097 64.375031,243.447388 
	C64.652695,243.559891 64.899475,243.748657 65.287399,244.211182 
z"/>
<path fill="#000000" opacity="1.000000" stroke="none" 
	d="
M130.020935,251.382263 
	C129.885635,246.959045 129.835785,242.972412 129.794601,238.985672 
	C129.762070,235.837036 128.937714,233.211349 125.135330,233.314209 
	C121.562187,233.410873 121.003189,235.956512 121.025452,238.901901 
	C121.054329,242.722000 121.007927,246.544281 120.902336,250.363083 
	C120.853287,252.136642 120.313034,253.783722 118.115440,253.750549 
	C115.758690,253.714981 115.712868,251.869400 115.687714,250.170197 
	C115.636055,246.681503 115.538361,243.189087 115.643608,239.703751 
	C115.742813,236.418808 115.224167,233.455704 112.409050,231.527267 
	C112.832512,230.331451 113.674149,229.914948 114.460190,230.062683 
	C118.545723,230.830643 122.516327,230.427460 126.624062,229.852203 
	C131.483765,229.171631 134.527679,231.836334 135.037231,236.910843 
	C135.499878,241.518326 135.237518,246.200058 135.260086,250.849228 
	C135.265945,252.057938 135.004242,253.234467 133.646896,253.637695 
	C131.935089,254.146255 130.752365,253.469254 130.020935,251.382263 
z"/>
<path fill="#000000" opacity="1.000000" stroke="none" 
	d="
M196.900452,238.667908 
	C197.711914,244.483185 197.041901,249.514969 192.009186,252.699783 
	C186.338333,256.288391 179.710068,254.391144 176.686737,248.591400 
	C173.166138,241.837769 175.613892,233.124985 181.767670,230.505722 
	C188.290955,227.729187 194.263657,230.819366 196.900452,238.667908 
M186.378983,232.890472 
	C180.440857,235.545151 178.792862,245.748611 183.579697,249.937866 
	C185.743454,251.831528 187.503372,251.027481 189.203064,249.346832 
	C193.437729,245.159531 192.268524,236.421173 186.378983,232.890472 
z"/>
<path fill="#000000" opacity="1.000000" stroke="none" 
	d="
M238.309021,251.727829 
	C238.014313,253.611160 237.066925,254.166946 235.774292,253.537704 
	C233.916763,252.633438 232.327042,253.259583 230.539108,253.790390 
	C225.607697,255.254486 220.905762,253.148270 219.875092,249.243790 
	C218.696365,244.778351 221.024094,241.823837 226.836334,240.400955 
	C227.319473,240.282669 227.805374,240.162720 228.272766,239.995392 
	C229.845139,239.432541 232.250198,240.356888 232.678986,237.731659 
	C233.011169,235.697876 232.025330,234.189026 230.279602,233.212646 
	C228.089325,231.987671 226.484680,233.235626 224.987808,234.632599 
	C224.156296,235.408615 223.577286,236.545273 221.693039,236.229324 
	C220.072723,234.370682 220.582138,232.434204 222.687256,231.182541 
	C226.147583,229.125092 230.042297,229.013611 233.725769,230.399292 
	C237.243210,231.722519 238.452042,234.748550 238.376038,238.419067 
	C238.286926,242.722763 238.350418,247.029602 238.309021,251.727829 
M230.218414,250.551315 
	C233.027130,249.579117 233.283463,247.351028 232.748184,244.957642 
	C232.316025,243.025284 230.642761,243.098969 229.168777,243.448105 
	C227.357941,243.877029 225.626984,244.724747 225.480148,246.846481 
	C225.292984,249.551224 226.979752,250.604752 230.218414,250.551315 
z"/>
<path fill="#000000" opacity="1.000000" stroke="none" 
	d="
M92.165657,262.313477 
	C99.318886,257.090790 99.798355,255.342010 96.301224,247.234924 
	C95.116020,244.487366 94.045410,241.690582 92.883026,238.932907 
	C91.539116,235.744598 90.551521,232.278580 85.759361,231.357956 
	C91.579666,228.497559 94.317520,229.390137 96.791214,233.932541 
	C98.527748,237.121338 99.105751,240.876923 101.758125,244.084000 
	C103.859756,241.803513 104.154892,238.925430 105.257439,236.449936 
	C106.253769,234.212906 106.190933,231.193176 108.974632,230.294891 
	C110.608665,231.233170 110.397621,232.229126 110.047112,233.190567 
	C107.027908,241.472061 104.041992,249.766373 100.932220,258.013885 
	C99.419159,262.026703 96.921890,264.540283 92.165657,262.313477 
z"/>
<path fill="#000000" opacity="1.000000" stroke="none" 
	d="
M155.646545,234.340393 
	C150.661377,231.807510 147.869644,232.745544 146.117645,237.536530 
	C144.614838,241.645996 144.662643,245.772202 147.796661,249.201355 
	C150.032776,251.648010 152.850800,251.257462 155.609787,250.020233 
	C156.770630,249.499680 157.456360,248.020782 159.340744,248.331787 
	C160.110443,251.066330 157.938065,252.089386 156.250137,253.051346 
	C150.104111,256.553986 142.339539,253.265991 140.303909,246.430725 
	C137.351456,236.516861 143.529785,228.704102 153.474716,229.775665 
	C158.585464,230.326355 159.922699,232.434647 158.570938,237.903885 
	C156.787430,237.499527 157.002899,235.491241 155.646545,234.340393 
z"/>
<path fill="#000000" opacity="1.000000" stroke="none" 
	d="
M202.627380,244.829742 
	C202.544800,235.164368 202.544800,235.164368 199.718872,231.187439 
	C200.267014,229.745865 201.634949,229.654343 202.631714,230.045792 
	C205.747818,231.269440 208.666199,230.976227 211.731628,229.836945 
	C213.106674,229.325882 214.699921,229.735260 216.035751,230.607361 
	C216.960373,231.211014 217.483017,232.011276 217.205719,233.116058 
	C216.890945,234.370132 215.864182,234.365860 214.822601,234.338974 
	C207.760406,234.156662 207.813141,234.162506 207.806976,241.156921 
	C207.804199,244.316986 207.481049,247.475677 207.423035,250.637192 
	C207.388458,252.521622 207.068542,254.044952 204.744232,253.911636 
	C202.356323,253.774658 202.383926,252.015472 202.449783,250.273865 
	C202.512741,248.609497 202.566635,246.944794 202.627380,244.829742 
z"/>
</svg>