<svg xmlns="http://www.w3.org/2000/svg" xmlns:xlink="http://www.w3.org/1999/xlink" width="500" zoomAndPan="magnify" viewBox="0 0 375 374.999991" height="500" preserveAspectRatio="xMidYMid meet" version="1.0"><defs><g/><clipPath id="0aaa30ba3c"><path d="M 31.113281 108.53125 L 119.285156 108.53125 L 119.285156 211 L 31.113281 211 Z M 31.113281 108.53125 " clip-rule="nonzero"/></clipPath><clipPath id="93c6b719c9"><path d="M 68 214 L 104 214 L 104 266.78125 L 68 266.78125 Z M 68 214 " clip-rule="nonzero"/></clipPath></defs><g clip-path="url(#0aaa30ba3c)"><path fill="#ffd0ed" d="M 70.144531 178.808594 C 71.050781 184.210938 70.472656 188.636719 68.726562 193.363281 C 66.773438 198.652344 64.195312 204.128906 64.242188 210.941406 C 66.625 208.039062 69.421875 205.453125 72.636719 203.214844 C 78.6875 198.996094 83.074219 195.578125 86.230469 191.570312 C 88.601562 188.558594 90.3125 185.84375 91.550781 183.503906 C 91.691406 182.371094 91.863281 181.203125 92.050781 179.976562 C 94.53125 163.730469 106.675781 139.117188 119.585938 108.53125 C 112.859375 117.097656 92.429688 157.019531 81 160.078125 C 69.753906 163.085938 30.890625 132.546875 30.804688 132.394531 C 47.839844 153.871094 67.730469 164.40625 70.144531 178.808594 Z M 70.144531 178.808594 " fill-opacity="1" fill-rule="nonzero"/></g><path fill="#ffffff" d="M 94.800781 227.671875 C 103.582031 216.410156 107.9375 196.964844 103.585938 180.015625 C 103.585938 180.015625 104.539062 209.085938 76.296875 229.507812 C 76.296875 229.507812 100.140625 207.167969 98.132812 174.527344 C 98.132812 174.527344 97.910156 182.199219 88.886719 193.660156 C 85.359375 198.136719 80.566406 201.808594 74.566406 205.988281 C 47.152344 225.082031 61.714844 263.707031 61.714844 263.707031 C 67.300781 247.570312 84.292969 241.140625 94.800781 227.671875 Z M 94.800781 227.671875 " fill-opacity="1" fill-rule="nonzero"/><path fill="#38b6ff" d="M 74.566406 205.988281 C 80.566406 201.808594 85.359375 198.136719 88.886719 193.660156 C 97.910156 182.199219 98.132812 174.527344 98.132812 174.527344 C 98.132812 174.527344 98.589844 182.191406 90.605469 194.398438 C 87.488281 199.171875 83.035156 203.246094 77.425781 207.941406 C 60.566406 222.042969 60.898438 244.929688 61.714844 263.707031 C 61.714844 263.707031 47.152344 225.082031 74.566406 205.988281 Z M 74.566406 205.988281 " fill-opacity="1" fill-rule="nonzero"/><g clip-path="url(#93c6b719c9)"><path fill="#00aeef" d="M 97.347656 231.191406 C 88.667969 244.472656 73.902344 252.175781 68.464844 266.464844 C 75.933594 257.613281 86.835938 251.367188 94.277344 241.492188 C 99.457031 234.617188 102.972656 224.792969 103.941406 214.382812 C 102.640625 220.730469 100.378906 226.546875 97.347656 231.191406 Z M 97.347656 231.191406 " fill-opacity="1" fill-rule="nonzero"/></g><path fill="#38b6ff" d="M 54.757812 173.3125 C 59.835938 174.671875 65.425781 179.417969 67.902344 185.359375 C 67.902344 185.359375 61.738281 176.613281 48.914062 176.871094 C 48.914062 176.871094 60.871094 178.148438 67.519531 188.183594 C 67.519531 188.183594 65.753906 185.976562 60.5625 184.613281 C 58.53125 184.078125 56.3125 184.0625 53.621094 184.164062 C 41.335938 184.632812 37.050781 170.0625 37.050781 170.0625 C 42.269531 173.5625 48.6875 171.683594 54.757812 173.3125 Z M 54.757812 173.3125 " fill-opacity="1" fill-rule="nonzero"/><path fill="#38b6ff" d="M 54.796875 187.691406 C 58.257812 186.527344 63.320312 187.125 67.042969 189.613281 C 67.042969 189.613281 60.109375 186.917969 52.785156 192 C 52.785156 192 60.199219 188.140625 67.902344 191.394531 C 67.902344 191.394531 66.035156 190.796875 62.503906 192.003906 C 61.121094 192.472656 59.832031 193.320312 58.3125 194.414062 C 51.378906 199.40625 43.296875 192.617188 43.296875 192.617188 C 47.664062 192.636719 50.65625 189.082031 54.796875 187.691406 Z M 54.796875 187.691406 " fill-opacity="1" fill-rule="nonzero"/><path fill="#ffd0ed" d="M 86.167969 143.953125 C 86.039062 143.273438 85.859375 142.617188 85.628906 141.972656 C 85.394531 141.328125 85.113281 140.714844 84.78125 140.132812 C 84.449219 139.546875 84.074219 139.003906 83.65625 138.5 C 83.238281 137.996094 82.789062 137.539062 82.300781 137.136719 C 81.8125 136.734375 81.300781 136.386719 80.765625 136.097656 C 80.226562 135.808594 79.675781 135.582031 79.109375 135.421875 C 78.539062 135.261719 77.96875 135.164062 77.390625 135.136719 C 76.816406 135.105469 76.246094 135.144531 75.683594 135.25 C 75.125 135.355469 74.578125 135.523438 74.050781 135.757812 C 73.527344 135.992188 73.027344 136.289062 72.554688 136.644531 C 72.085938 137 71.652344 137.410156 71.253906 137.871094 C 70.855469 138.335938 70.503906 138.84375 70.195312 139.394531 C 69.886719 139.949219 69.628906 140.535156 69.421875 141.152344 C 69.214844 141.773438 69.0625 142.417969 68.964844 143.082031 C 68.863281 143.746094 68.824219 144.421875 68.835938 145.105469 C 68.851562 145.789062 68.921875 146.46875 69.046875 147.144531 C 69.171875 147.820312 69.351562 148.480469 69.585938 149.125 C 69.820312 149.765625 70.101562 150.378906 70.433594 150.964844 C 70.765625 151.550781 71.140625 152.09375 71.558594 152.597656 C 71.972656 153.101562 72.425781 153.554688 72.914062 153.960938 C 73.398438 154.363281 73.910156 154.710938 74.449219 155 C 74.988281 155.289062 75.539062 155.511719 76.105469 155.675781 C 76.675781 155.835938 77.246094 155.933594 77.820312 155.960938 C 78.398438 155.988281 78.964844 155.953125 79.527344 155.847656 C 80.089844 155.742188 80.636719 155.574219 81.160156 155.335938 C 81.6875 155.101562 82.1875 154.808594 82.65625 154.453125 C 83.128906 154.097656 83.5625 153.6875 83.960938 153.222656 C 84.359375 152.761719 84.710938 152.253906 85.019531 151.703125 C 85.328125 151.148438 85.585938 150.5625 85.792969 149.941406 C 86 149.320312 86.152344 148.679688 86.25 148.015625 C 86.347656 147.347656 86.390625 146.675781 86.378906 145.992188 C 86.363281 145.308594 86.292969 144.628906 86.167969 143.953125 Z M 86.167969 143.953125 " fill-opacity="1" fill-rule="nonzero"/><g fill="#ffd0ed" fill-opacity="1"><g transform="translate(107.2758, 188.579167)"><g><path d="M 13.0625 -33.171875 C 14.65625 -33.171875 15.925781 -33.015625 16.875 -32.703125 C 17.832031 -32.398438 18.800781 -31.957031 19.78125 -31.375 C 20.113281 -31.1875 20.410156 -31.03125 20.671875 -30.90625 C 20.929688 -30.789062 21.15625 -30.734375 21.34375 -30.734375 C 21.625 -30.734375 21.835938 -30.890625 21.984375 -31.203125 C 22.140625 -31.523438 22.265625 -32.039062 22.359375 -32.75 L 23.40625 -32.75 C 23.257812 -30.695312 23.1875 -27.203125 23.1875 -22.265625 L 22.125 -22.265625 C 22 -23.921875 21.625 -25.5 21 -27 C 20.375 -28.5 19.484375 -29.71875 18.328125 -30.65625 C 17.179688 -31.59375 15.84375 -32.0625 14.3125 -32.0625 C 12.800781 -32.0625 11.578125 -31.640625 10.640625 -30.796875 C 9.710938 -29.953125 9.25 -28.8125 9.25 -27.375 C 9.25 -26.300781 9.476562 -25.363281 9.9375 -24.5625 C 10.394531 -23.769531 11.035156 -23.039062 11.859375 -22.375 C 12.691406 -21.71875 13.96875 -20.820312 15.6875 -19.6875 L 17.15625 -18.671875 C 18.96875 -17.472656 20.394531 -16.429688 21.4375 -15.546875 C 22.476562 -14.660156 23.328125 -13.625 23.984375 -12.4375 C 24.648438 -11.257812 24.984375 -9.890625 24.984375 -8.328125 C 24.984375 -6.359375 24.472656 -4.707031 23.453125 -3.375 C 22.441406 -2.039062 21.070312 -1.035156 19.34375 -0.359375 C 17.613281 0.304688 15.6875 0.640625 13.5625 0.640625 C 11.851562 0.640625 10.429688 0.484375 9.296875 0.171875 C 8.160156 -0.128906 7.113281 -0.539062 6.15625 -1.0625 C 5.488281 -1.488281 4.96875 -1.703125 4.59375 -1.703125 C 4.320312 -1.703125 4.109375 -1.539062 3.953125 -1.21875 C 3.796875 -0.894531 3.675781 -0.378906 3.59375 0.328125 L 2.53125 0.328125 C 2.65625 -1.609375 2.71875 -5.75 2.71875 -12.09375 L 3.765625 -12.09375 C 3.984375 -8.664062 4.75 -5.882812 6.0625 -3.75 C 7.382812 -1.613281 9.410156 -0.546875 12.140625 -0.546875 C 13.796875 -0.546875 15.160156 -0.988281 16.234375 -1.875 C 17.304688 -2.769531 17.84375 -4.046875 17.84375 -5.703125 C 17.84375 -7.421875 17.289062 -8.890625 16.1875 -10.109375 C 15.082031 -11.335938 13.335938 -12.722656 10.953125 -14.265625 C 9.109375 -15.453125 7.632812 -16.488281 6.53125 -17.375 C 5.425781 -18.269531 4.519531 -19.320312 3.8125 -20.53125 C 3.113281 -21.75 2.765625 -23.15625 2.765625 -24.75 C 2.765625 -26.59375 3.226562 -28.148438 4.15625 -29.421875 C 5.09375 -30.691406 6.34375 -31.632812 7.90625 -32.25 C 9.476562 -32.863281 11.195312 -33.171875 13.0625 -33.171875 Z M 13.0625 -33.171875 "/></g></g></g><g fill="#ffd0ed" fill-opacity="1"><g transform="translate(131.285534, 188.579167)"><g><path d="M 24.890625 -32.46875 C 26.296875 -32.46875 27.457031 -32.515625 28.375 -32.609375 L 28.375 -31.6875 C 26.96875 -31.101562 25.5 -29.328125 23.96875 -26.359375 L 18.53125 -15.59375 L 18.53125 -4.875 C 18.53125 -3.707031 18.613281 -2.863281 18.78125 -2.34375 C 18.957031 -1.820312 19.273438 -1.46875 19.734375 -1.28125 C 20.191406 -1.101562 20.941406 -0.984375 21.984375 -0.921875 L 21.984375 0 C 20.328125 -0.09375 17.96875 -0.140625 14.90625 -0.140625 C 11.625 -0.140625 9.25 -0.09375 7.78125 0 L 7.78125 -0.921875 C 8.789062 -0.984375 9.53125 -1.101562 10 -1.28125 C 10.476562 -1.46875 10.800781 -1.820312 10.96875 -2.34375 C 11.132812 -2.863281 11.21875 -3.707031 11.21875 -4.875 L 11.21875 -12.65625 L 2.34375 -29.078125 C 1.394531 -30.785156 0.503906 -31.640625 -0.328125 -31.640625 L -0.328125 -32.609375 C 1.023438 -32.460938 2.835938 -32.390625 5.109375 -32.390625 C 7.960938 -32.390625 10.84375 -32.460938 13.75 -32.609375 L 13.75 -31.640625 C 12.675781 -31.640625 11.828125 -31.539062 11.203125 -31.34375 C 10.578125 -31.144531 10.265625 -30.785156 10.265625 -30.265625 C 10.265625 -29.992188 10.367188 -29.65625 10.578125 -29.25 L 17.578125 -15.78125 L 21.15625 -22.953125 C 22.351562 -25.378906 22.953125 -27.28125 22.953125 -28.65625 C 22.953125 -29.695312 22.617188 -30.445312 21.953125 -30.90625 C 21.296875 -31.375 20.359375 -31.632812 19.140625 -31.6875 L 19.140625 -32.609375 C 21.222656 -32.515625 23.140625 -32.46875 24.890625 -32.46875 Z M 24.890625 -32.46875 "/></g></g></g><g fill="#ffd0ed" fill-opacity="1"><g transform="translate(157.089118, 188.579167)"><g><path d="M 31.875 -31.640625 C 30.863281 -31.492188 30.117188 -31.234375 29.640625 -30.859375 C 29.171875 -30.492188 28.847656 -29.910156 28.671875 -29.109375 C 28.503906 -28.316406 28.421875 -27.140625 28.421875 -25.578125 L 28.421875 0.09375 L 27.328125 0.046875 L 26.078125 0.09375 L 6.125 -25.203125 L 6.125 -7.546875 C 6.125 -5.734375 6.210938 -4.40625 6.390625 -3.5625 C 6.578125 -2.71875 6.976562 -2.101562 7.59375 -1.71875 C 8.207031 -1.34375 9.203125 -1.078125 10.578125 -0.921875 L 10.578125 0 C 9.378906 -0.09375 7.722656 -0.140625 5.609375 -0.140625 C 3.921875 -0.140625 2.585938 -0.09375 1.609375 0 L 1.609375 -0.921875 C 2.617188 -1.078125 3.359375 -1.335938 3.828125 -1.703125 C 4.304688 -2.066406 4.628906 -2.644531 4.796875 -3.4375 C 4.972656 -4.238281 5.0625 -5.421875 5.0625 -6.984375 L 5.0625 -27.6875 C 5.0625 -28.851562 4.972656 -29.695312 4.796875 -30.21875 C 4.628906 -30.738281 4.304688 -31.09375 3.828125 -31.28125 C 3.359375 -31.46875 2.617188 -31.585938 1.609375 -31.640625 L 1.609375 -32.5625 C 2.585938 -32.476562 3.921875 -32.4375 5.609375 -32.4375 C 7.140625 -32.4375 8.457031 -32.476562 9.5625 -32.5625 L 27.375 -10.625 L 27.375 -25.03125 C 27.375 -26.832031 27.28125 -28.15625 27.09375 -29 C 26.90625 -29.84375 26.503906 -30.457031 25.890625 -30.84375 C 25.285156 -31.226562 24.289062 -31.492188 22.90625 -31.640625 L 22.90625 -32.5625 C 24.101562 -32.476562 25.757812 -32.4375 27.875 -32.4375 C 29.59375 -32.4375 30.925781 -32.476562 31.875 -32.5625 Z M 31.875 -31.640625 "/></g></g></g><g fill="#ffd0ed" fill-opacity="1"><g transform="translate(187.446315, 188.579167)"><g><path d="M 18.265625 -33.21875 C 20.097656 -33.21875 21.660156 -32.953125 22.953125 -32.421875 C 24.242188 -31.898438 25.5 -31.164062 26.71875 -30.21875 C 27.0625 -29.945312 27.351562 -29.8125 27.59375 -29.8125 C 28.207031 -29.8125 28.609375 -30.726562 28.796875 -32.5625 L 29.859375 -32.5625 C 29.734375 -30.476562 29.671875 -26.769531 29.671875 -21.4375 L 28.609375 -21.4375 C 28.335938 -23.707031 27.96875 -25.4375 27.5 -26.625 C 27.039062 -27.820312 26.257812 -28.867188 25.15625 -29.765625 C 24.394531 -30.492188 23.503906 -31.050781 22.484375 -31.4375 C 21.472656 -31.820312 20.414062 -32.015625 19.3125 -32.015625 C 16.21875 -32.015625 13.921875 -30.503906 12.421875 -27.484375 C 10.921875 -24.460938 10.171875 -20.695312 10.171875 -16.1875 C 10.171875 -11.707031 10.953125 -7.960938 12.515625 -4.953125 C 14.078125 -1.953125 16.40625 -0.453125 19.5 -0.453125 C 20.539062 -0.453125 21.578125 -0.644531 22.609375 -1.03125 C 23.640625 -1.414062 24.503906 -1.976562 25.203125 -2.71875 C 26.335938 -3.570312 27.128906 -4.640625 27.578125 -5.921875 C 28.023438 -7.210938 28.367188 -9.101562 28.609375 -11.59375 L 29.671875 -11.59375 C 29.671875 -6.039062 29.734375 -2.175781 29.859375 0 L 28.796875 0 C 28.703125 -0.976562 28.570312 -1.675781 28.40625 -2.09375 C 28.238281 -2.507812 28 -2.71875 27.6875 -2.71875 C 27.445312 -2.71875 27.125 -2.59375 26.71875 -2.34375 C 25.34375 -1.363281 24.023438 -0.617188 22.765625 -0.109375 C 21.515625 0.390625 20 0.640625 18.21875 0.640625 C 14.96875 0.640625 12.125 -0.015625 9.6875 -1.328125 C 7.25 -2.648438 5.351562 -4.5625 4 -7.0625 C 2.65625 -9.5625 1.984375 -12.546875 1.984375 -16.015625 C 1.984375 -19.378906 2.671875 -22.363281 4.046875 -24.96875 C 5.429688 -27.582031 7.359375 -29.609375 9.828125 -31.046875 C 12.296875 -32.492188 15.109375 -33.21875 18.265625 -33.21875 Z M 18.265625 -33.21875 "/></g></g></g><g fill="#ffd0ed" fill-opacity="1"><g transform="translate(217.021577, 188.579167)"><g><path d="M 18.265625 -33.21875 C 21.515625 -33.21875 24.359375 -32.554688 26.796875 -31.234375 C 29.234375 -29.910156 31.125 -28 32.46875 -25.5 C 33.820312 -23.007812 34.5 -20.03125 34.5 -16.5625 C 34.5 -13.1875 33.804688 -10.195312 32.421875 -7.59375 C 31.046875 -4.988281 29.125 -2.960938 26.65625 -1.515625 C 24.1875 -0.078125 21.375 0.640625 18.21875 0.640625 C 14.96875 0.640625 12.125 -0.015625 9.6875 -1.328125 C 7.25 -2.648438 5.351562 -4.5625 4 -7.0625 C 2.65625 -9.5625 1.984375 -12.546875 1.984375 -16.015625 C 1.984375 -19.378906 2.671875 -22.363281 4.046875 -24.96875 C 5.429688 -27.582031 7.359375 -29.609375 9.828125 -31.046875 C 12.296875 -32.492188 15.109375 -33.21875 18.265625 -33.21875 Z M 18.078125 -32.390625 C 16.390625 -32.390625 14.898438 -31.707031 13.609375 -30.34375 C 12.328125 -28.976562 11.335938 -27.066406 10.640625 -24.609375 C 9.953125 -22.160156 9.609375 -19.351562 9.609375 -16.1875 C 9.609375 -13 10 -10.191406 10.78125 -7.765625 C 11.5625 -5.347656 12.617188 -3.476562 13.953125 -2.15625 C 15.296875 -0.84375 16.78125 -0.1875 18.40625 -0.1875 C 20.09375 -0.1875 21.578125 -0.867188 22.859375 -2.234375 C 24.148438 -3.597656 25.140625 -5.503906 25.828125 -7.953125 C 26.515625 -10.410156 26.859375 -13.21875 26.859375 -16.375 C 26.859375 -19.5625 26.46875 -22.363281 25.6875 -24.78125 C 24.90625 -27.207031 23.847656 -29.082031 22.515625 -30.40625 C 21.179688 -31.726562 19.703125 -32.390625 18.078125 -32.390625 Z M 18.078125 -32.390625 "/></g></g></g><g fill="#ffd0ed" fill-opacity="1"><g transform="translate(250.644499, 188.579167)"><g><path d="M 32.75 -2.03125 C 31.925781 -1.070312 31.035156 -0.390625 30.078125 0.015625 C 29.128906 0.429688 27.984375 0.640625 26.640625 0.640625 C 24.859375 0.640625 23.453125 0.265625 22.421875 -0.484375 C 21.398438 -1.234375 20.734375 -2.515625 20.421875 -4.328125 L 19.59375 -8.921875 C 19.195312 -11.160156 18.710938 -12.804688 18.140625 -13.859375 C 17.578125 -14.921875 16.632812 -15.453125 15.3125 -15.453125 L 12.328125 -15.453125 L 12.328125 -4.875 C 12.328125 -3.707031 12.410156 -2.863281 12.578125 -2.34375 C 12.742188 -1.820312 13.054688 -1.46875 13.515625 -1.28125 C 13.984375 -1.101562 14.738281 -0.984375 15.78125 -0.921875 L 15.78125 0 C 14.125 -0.09375 11.804688 -0.140625 8.828125 -0.140625 C 5.546875 -0.140625 3.125 -0.09375 1.5625 0 L 1.5625 -0.921875 C 2.570312 -0.984375 3.316406 -1.101562 3.796875 -1.28125 C 4.273438 -1.46875 4.597656 -1.820312 4.765625 -2.34375 C 4.929688 -2.863281 5.015625 -3.707031 5.015625 -4.875 L 5.015625 -27.6875 C 5.015625 -28.851562 4.929688 -29.695312 4.765625 -30.21875 C 4.597656 -30.738281 4.273438 -31.09375 3.796875 -31.28125 C 3.316406 -31.46875 2.570312 -31.585938 1.5625 -31.640625 L 1.5625 -32.5625 C 3.125 -32.476562 5.457031 -32.4375 8.5625 -32.4375 L 13.65625 -32.46875 C 14.269531 -32.5 14.976562 -32.515625 15.78125 -32.515625 C 20.007812 -32.515625 23.1875 -31.820312 25.3125 -30.4375 C 27.445312 -29.0625 28.515625 -27.085938 28.515625 -24.515625 C 28.515625 -22.335938 27.71875 -20.421875 26.125 -18.765625 C 24.53125 -17.109375 21.894531 -16.066406 18.21875 -15.640625 C 20.976562 -15.390625 23.03125 -14.789062 24.375 -13.84375 C 25.726562 -12.894531 26.601562 -11.46875 27 -9.5625 L 28.0625 -4.828125 C 28.300781 -3.597656 28.582031 -2.738281 28.90625 -2.25 C 29.226562 -1.757812 29.679688 -1.515625 30.265625 -1.515625 C 30.628906 -1.546875 30.941406 -1.640625 31.203125 -1.796875 C 31.472656 -1.953125 31.773438 -2.210938 32.109375 -2.578125 Z M 15.1875 -31.640625 C 14.351562 -31.640625 13.742188 -31.53125 13.359375 -31.3125 C 12.972656 -31.101562 12.703125 -30.722656 12.546875 -30.171875 C 12.398438 -29.617188 12.328125 -28.789062 12.328125 -27.6875 L 12.328125 -16.375 L 14.3125 -16.375 C 16.820312 -16.375 18.546875 -17.039062 19.484375 -18.375 C 20.421875 -19.707031 20.890625 -21.585938 20.890625 -24.015625 C 20.890625 -26.523438 20.441406 -28.421875 19.546875 -29.703125 C 18.660156 -30.992188 17.207031 -31.640625 15.1875 -31.640625 Z M 15.1875 -31.640625 "/></g></g></g><g fill="#ffd0ed" fill-opacity="1"><g transform="translate(279.621819, 188.579167)"><g><path d="M 28.109375 -3.859375 C 28.503906 -2.847656 28.960938 -2.113281 29.484375 -1.65625 C 30.003906 -1.195312 30.507812 -0.953125 31 -0.921875 L 31 0 C 29.164062 -0.09375 26.835938 -0.140625 24.015625 -0.140625 C 20.878906 -0.140625 18.546875 -0.09375 17.015625 0 L 17.015625 -0.921875 C 18.179688 -0.984375 19.007812 -1.128906 19.5 -1.359375 C 19.988281 -1.585938 20.234375 -1.992188 20.234375 -2.578125 C 20.234375 -3.128906 20.050781 -3.863281 19.6875 -4.78125 L 16.921875 -12.328125 L 6.90625 -12.328125 L 5.703125 -9.15625 C 4.847656 -6.945312 4.421875 -5.242188 4.421875 -4.046875 C 4.421875 -2.910156 4.765625 -2.117188 5.453125 -1.671875 C 6.140625 -1.234375 7.160156 -0.984375 8.515625 -0.921875 L 8.515625 0 C 6.421875 -0.09375 4.519531 -0.140625 2.8125 -0.140625 C 1.394531 -0.140625 0.226562 -0.09375 -0.6875 0 L -0.6875 -0.921875 C 0.8125 -1.191406 2.128906 -2.800781 3.265625 -5.75 L 13.75 -32.65625 C 14.09375 -32.625 14.628906 -32.609375 15.359375 -32.609375 C 16.097656 -32.609375 16.617188 -32.625 16.921875 -32.65625 Z M 16.609375 -13.25 L 12.046875 -25.671875 L 7.265625 -13.25 Z M 16.609375 -13.25 "/></g></g></g><path fill="#d7d1f3" d="M 129.039062 196.507812 L 302.964844 196.507812 C 303.5 196.507812 304.019531 196.722656 304.398438 197.101562 C 304.777344 197.484375 304.992188 198 304.992188 198.539062 L 304.992188 225.703125 C 304.992188 226.238281 304.777344 226.757812 304.398438 227.136719 C 304.019531 227.515625 303.5 227.730469 302.964844 227.730469 L 129.039062 227.730469 C 127.917969 227.730469 127.011719 226.824219 127.011719 225.703125 L 127.011719 198.539062 C 127.011719 197.417969 127.917969 196.507812 129.039062 196.507812 Z M 129.039062 196.507812 " fill-opacity="1" fill-rule="nonzero"/><g fill="#662d91" fill-opacity="1"><g transform="translate(138.998154, 218.119498)"><g><path d="M 11.828125 -10.328125 C 12.578125 -10.328125 13.1875 -10.335938 13.65625 -10.359375 L 13.59375 -10.078125 C 13.226562 -10.054688 12.957031 -10.015625 12.78125 -9.953125 C 12.613281 -9.898438 12.476562 -9.789062 12.375 -9.625 C 12.269531 -9.457031 12.171875 -9.1875 12.078125 -8.8125 L 10.140625 -1.546875 C 10.066406 -1.210938 10.03125 -0.976562 10.03125 -0.84375 C 10.03125 -0.632812 10.097656 -0.492188 10.234375 -0.421875 C 10.378906 -0.359375 10.640625 -0.316406 11.015625 -0.296875 L 10.953125 0 C 10.503906 -0.03125 9.898438 -0.046875 9.140625 -0.046875 C 8.273438 -0.046875 7.640625 -0.03125 7.234375 0 L 7.296875 -0.296875 C 7.648438 -0.316406 7.910156 -0.351562 8.078125 -0.40625 C 8.253906 -0.46875 8.394531 -0.582031 8.5 -0.75 C 8.601562 -0.914062 8.703125 -1.179688 8.796875 -1.546875 L 10.921875 -9.4375 L 4.84375 0.078125 L 4.53125 0.078125 L 3.53125 -9.5625 L 1.453125 -1.703125 C 1.367188 -1.367188 1.328125 -1.125 1.328125 -0.96875 C 1.328125 -0.71875 1.40625 -0.546875 1.5625 -0.453125 C 1.726562 -0.367188 2.019531 -0.316406 2.4375 -0.296875 L 2.359375 0 C 2.023438 -0.03125 1.53125 -0.046875 0.875 -0.046875 C 0.300781 -0.046875 -0.15625 -0.03125 -0.5 0 L -0.421875 -0.296875 C -0.078125 -0.316406 0.179688 -0.367188 0.359375 -0.453125 C 0.546875 -0.535156 0.691406 -0.664062 0.796875 -0.84375 C 0.910156 -1.03125 1.015625 -1.316406 1.109375 -1.703125 L 3.015625 -8.8125 C 3.097656 -9.144531 3.140625 -9.378906 3.140625 -9.515625 C 3.140625 -9.734375 3.066406 -9.875 2.921875 -9.9375 C 2.773438 -10.007812 2.519531 -10.054688 2.15625 -10.078125 L 2.21875 -10.359375 C 2.53125 -10.335938 2.96875 -10.328125 3.53125 -10.328125 C 4.039062 -10.328125 4.46875 -10.335938 4.8125 -10.359375 L 5.625 -1.6875 L 11.125 -10.328125 Z M 11.828125 -10.328125 "/></g></g></g><g fill="#662d91" fill-opacity="1"><g transform="translate(151.966531, 218.119498)"><g><path d="M 6.484375 -10.328125 C 7.847656 -10.328125 8.820312 -10.335938 9.40625 -10.359375 C 9.144531 -9.660156 8.957031 -9.085938 8.84375 -8.640625 C 8.738281 -8.285156 8.671875 -7.984375 8.640625 -7.734375 L 8.296875 -7.734375 C 8.390625 -8.296875 8.4375 -8.6875 8.4375 -8.90625 C 8.4375 -9.320312 8.328125 -9.613281 8.109375 -9.78125 C 7.890625 -9.945312 7.503906 -10.03125 6.953125 -10.03125 L 5.890625 -10.03125 C 5.535156 -10.03125 5.269531 -10.003906 5.09375 -9.953125 C 4.925781 -9.898438 4.789062 -9.789062 4.6875 -9.625 C 4.582031 -9.457031 4.476562 -9.1875 4.375 -8.8125 L 3.453125 -5.359375 L 4.421875 -5.359375 C 4.765625 -5.359375 5.046875 -5.4375 5.265625 -5.59375 C 5.492188 -5.757812 5.671875 -5.945312 5.796875 -6.15625 C 5.921875 -6.375 6.046875 -6.648438 6.171875 -6.984375 C 6.203125 -7.078125 6.242188 -7.179688 6.296875 -7.296875 L 6.625 -7.296875 C 6.425781 -6.648438 6.257812 -6.066406 6.125 -5.546875 L 6.03125 -5.21875 C 5.894531 -4.695312 5.738281 -4.003906 5.5625 -3.140625 L 5.234375 -3.140625 L 5.265625 -3.421875 C 5.273438 -3.492188 5.289062 -3.601562 5.3125 -3.75 C 5.332031 -3.894531 5.34375 -4.019531 5.34375 -4.125 C 5.34375 -4.414062 5.265625 -4.644531 5.109375 -4.8125 C 4.960938 -4.976562 4.703125 -5.0625 4.328125 -5.0625 L 3.375 -5.0625 L 2.4375 -1.546875 C 2.34375 -1.242188 2.296875 -1.003906 2.296875 -0.828125 C 2.296875 -0.628906 2.367188 -0.5 2.515625 -0.4375 C 2.660156 -0.375 2.921875 -0.34375 3.296875 -0.34375 L 4.359375 -0.34375 C 4.960938 -0.34375 5.445312 -0.421875 5.8125 -0.578125 C 6.175781 -0.734375 6.476562 -0.988281 6.71875 -1.34375 C 6.957031 -1.707031 7.203125 -2.234375 7.453125 -2.921875 L 7.78125 -2.921875 C 7.675781 -2.640625 7.570312 -2.289062 7.46875 -1.875 C 7.3125 -1.320312 7.179688 -0.695312 7.078125 0 C 6.410156 -0.03125 5.289062 -0.046875 3.71875 -0.046875 C 1.84375 -0.046875 0.429688 -0.03125 -0.515625 0 L -0.4375 -0.296875 C -0.0820312 -0.316406 0.175781 -0.351562 0.34375 -0.40625 C 0.507812 -0.46875 0.644531 -0.582031 0.75 -0.75 C 0.863281 -0.914062 0.96875 -1.179688 1.0625 -1.546875 L 3.015625 -8.8125 C 3.097656 -9.125 3.140625 -9.363281 3.140625 -9.53125 C 3.140625 -9.738281 3.066406 -9.875 2.921875 -9.9375 C 2.785156 -10.007812 2.535156 -10.054688 2.171875 -10.078125 L 2.234375 -10.359375 C 3.191406 -10.335938 4.609375 -10.328125 6.484375 -10.328125 Z M 6.484375 -10.328125 "/></g></g></g><g fill="#662d91" fill-opacity="1"><g transform="translate(161.158655, 218.119498)"><g><path d="M 11.890625 -11.03125 C 12.203125 -11.03125 12.425781 -10.960938 12.5625 -10.828125 C 12.695312 -10.691406 12.765625 -10.515625 12.765625 -10.296875 C 12.765625 -10.023438 12.6875 -9.78125 12.53125 -9.5625 C 12.375 -9.34375 12.164062 -9.234375 11.90625 -9.234375 C 11.707031 -9.234375 11.5625 -9.289062 11.46875 -9.40625 C 11.382812 -9.519531 11.34375 -9.65625 11.34375 -9.8125 C 11.34375 -9.96875 11.382812 -10.128906 11.46875 -10.296875 C 11.5625 -10.460938 11.675781 -10.609375 11.8125 -10.734375 L 11.765625 -10.734375 C 11.285156 -10.722656 10.890625 -10.472656 10.578125 -9.984375 C 10.140625 -9.335938 9.6875 -8.203125 9.21875 -6.578125 C 8.75 -4.953125 8.21875 -2.734375 7.625 0.078125 L 7.3125 0.078125 L 3.96875 -9.359375 C 3.488281 -6.910156 3.035156 -4.835938 2.609375 -3.140625 C 2.179688 -1.453125 1.773438 -0.351562 1.390625 0.15625 C 1.171875 0.4375 0.941406 0.660156 0.703125 0.828125 C 0.460938 0.992188 0.171875 1.078125 -0.171875 1.078125 C -0.753906 1.078125 -1.046875 0.828125 -1.046875 0.328125 C -1.046875 0.0546875 -0.96875 -0.179688 -0.8125 -0.390625 C -0.65625 -0.609375 -0.445312 -0.71875 -0.1875 -0.71875 C 0.0078125 -0.71875 0.148438 -0.660156 0.234375 -0.546875 C 0.316406 -0.429688 0.359375 -0.296875 0.359375 -0.140625 C 0.359375 0.015625 0.316406 0.171875 0.234375 0.328125 C 0.148438 0.492188 0.0351562 0.644531 -0.109375 0.78125 L -0.0625 0.78125 C 0.4375 0.769531 0.84375 0.515625 1.15625 0.015625 C 1.519531 -0.554688 1.894531 -1.582031 2.28125 -3.0625 C 2.675781 -4.550781 3.101562 -6.46875 3.5625 -8.8125 C 3.613281 -9.09375 3.640625 -9.3125 3.640625 -9.46875 C 3.640625 -9.707031 3.5625 -9.863281 3.40625 -9.9375 C 3.25 -10.007812 2.953125 -10.054688 2.515625 -10.078125 L 2.59375 -10.359375 C 2.90625 -10.335938 3.335938 -10.328125 3.890625 -10.328125 C 4.335938 -10.328125 4.734375 -10.335938 5.078125 -10.359375 L 7.84375 -2.265625 C 8.269531 -4.140625 8.679688 -5.757812 9.078125 -7.125 C 9.472656 -8.5 9.882812 -9.492188 10.3125 -10.109375 C 10.738281 -10.722656 11.265625 -11.03125 11.890625 -11.03125 Z M 11.890625 -11.03125 "/></g></g></g><g fill="#662d91" fill-opacity="1"><g transform="translate(172.692642, 218.119498)"><g><path d="M 8.4375 -10.46875 C 8.082031 -9.582031 7.789062 -8.585938 7.5625 -7.484375 L 7.28125 -7.484375 C 7.332031 -7.765625 7.359375 -8.039062 7.359375 -8.3125 C 7.359375 -8.882812 7.1875 -9.359375 6.84375 -9.734375 C 6.507812 -10.109375 5.988281 -10.296875 5.28125 -10.296875 C 4.664062 -10.296875 4.171875 -10.140625 3.796875 -9.828125 C 3.421875 -9.515625 3.234375 -9.050781 3.234375 -8.4375 C 3.234375 -7.957031 3.378906 -7.515625 3.671875 -7.109375 C 3.972656 -6.710938 4.421875 -6.238281 5.015625 -5.6875 C 5.441406 -5.3125 5.78125 -4.984375 6.03125 -4.703125 C 6.28125 -4.421875 6.492188 -4.109375 6.671875 -3.765625 C 6.847656 -3.421875 6.9375 -3.054688 6.9375 -2.671875 C 6.9375 -2.035156 6.753906 -1.5 6.390625 -1.0625 C 6.023438 -0.625 5.554688 -0.300781 4.984375 -0.09375 C 4.421875 0.101562 3.835938 0.203125 3.234375 0.203125 C 2.710938 0.203125 2.296875 0.140625 1.984375 0.015625 C 1.679688 -0.109375 1.40625 -0.269531 1.15625 -0.46875 C 0.96875 -0.613281 0.789062 -0.6875 0.625 -0.6875 C 0.507812 -0.6875 0.410156 -0.628906 0.328125 -0.515625 C 0.253906 -0.398438 0.15625 -0.191406 0.03125 0.109375 L -0.265625 0.109375 C -0.109375 -0.265625 0.0390625 -0.710938 0.1875 -1.234375 C 0.34375 -1.753906 0.523438 -2.476562 0.734375 -3.40625 L 1.03125 -3.40625 C 0.9375 -2.945312 0.890625 -2.585938 0.890625 -2.328125 C 0.890625 -1.617188 1.082031 -1.066406 1.46875 -0.671875 C 1.863281 -0.285156 2.46875 -0.09375 3.28125 -0.09375 C 3.945312 -0.09375 4.472656 -0.242188 4.859375 -0.546875 C 5.242188 -0.847656 5.4375 -1.304688 5.4375 -1.921875 C 5.4375 -2.285156 5.363281 -2.625 5.21875 -2.9375 C 5.070312 -3.25 4.890625 -3.523438 4.671875 -3.765625 C 4.460938 -4.003906 4.175781 -4.304688 3.8125 -4.671875 C 3.414062 -5.046875 3.101562 -5.363281 2.875 -5.625 C 2.644531 -5.882812 2.445312 -6.191406 2.28125 -6.546875 C 2.125 -6.898438 2.046875 -7.289062 2.046875 -7.71875 C 2.046875 -8.320312 2.195312 -8.835938 2.5 -9.265625 C 2.8125 -9.691406 3.210938 -10.015625 3.703125 -10.234375 C 4.203125 -10.460938 4.722656 -10.578125 5.265625 -10.578125 C 5.671875 -10.578125 6.019531 -10.523438 6.3125 -10.421875 C 6.601562 -10.328125 6.890625 -10.171875 7.171875 -9.953125 C 7.410156 -9.773438 7.570312 -9.6875 7.65625 -9.6875 C 7.738281 -9.6875 7.816406 -9.75 7.890625 -9.875 C 7.960938 -10 8.046875 -10.195312 8.140625 -10.46875 Z M 8.4375 -10.46875 "/></g></g></g><g fill="#662d91" fill-opacity="1"><g transform="translate(181.065116, 218.119498)"><g><path d="M 11.25 -11.96875 C 11.457031 -11.96875 11.617188 -11.898438 11.734375 -11.765625 C 11.847656 -11.628906 11.90625 -11.460938 11.90625 -11.265625 C 11.90625 -11.046875 11.835938 -10.84375 11.703125 -10.65625 C 11.578125 -10.476562 11.414062 -10.328125 11.21875 -10.203125 C 10.695312 -9.878906 9.925781 -9.71875 8.90625 -9.71875 C 8.46875 -9.71875 7.96875 -9.753906 7.40625 -9.828125 L 5.234375 -1.703125 C 5.148438 -1.398438 5.109375 -1.148438 5.109375 -0.953125 C 5.109375 -0.703125 5.195312 -0.53125 5.375 -0.4375 C 5.5625 -0.351562 5.882812 -0.304688 6.34375 -0.296875 L 6.28125 0 C 5.769531 -0.03125 5.039062 -0.046875 4.09375 -0.046875 C 3.144531 -0.046875 2.4375 -0.03125 1.96875 0 L 2.015625 -0.296875 C 2.429688 -0.316406 2.753906 -0.367188 2.984375 -0.453125 C 3.210938 -0.535156 3.390625 -0.671875 3.515625 -0.859375 C 3.640625 -1.046875 3.757812 -1.328125 3.875 -1.703125 L 6.09375 -10 C 5.300781 -10.101562 4.671875 -10.15625 4.203125 -10.15625 C 3.347656 -10.15625 2.800781 -10.070312 2.5625 -9.90625 C 2.632812 -9.800781 2.695312 -9.671875 2.75 -9.515625 C 2.800781 -9.359375 2.828125 -9.207031 2.828125 -9.0625 C 2.828125 -8.832031 2.757812 -8.632812 2.625 -8.46875 C 2.5 -8.300781 2.320312 -8.21875 2.09375 -8.21875 C 1.882812 -8.21875 1.722656 -8.28125 1.609375 -8.40625 C 1.503906 -8.539062 1.453125 -8.722656 1.453125 -8.953125 C 1.453125 -9.453125 1.707031 -9.832031 2.21875 -10.09375 C 2.675781 -10.3125 3.332031 -10.421875 4.1875 -10.421875 C 4.570312 -10.421875 4.941406 -10.40625 5.296875 -10.375 C 5.648438 -10.34375 6.09375 -10.289062 6.625 -10.21875 C 7.132812 -10.144531 7.5625 -10.09375 7.90625 -10.0625 C 8.257812 -10.03125 8.625 -10.015625 9 -10.015625 C 9.4375 -10.015625 9.800781 -10.035156 10.09375 -10.078125 C 10.394531 -10.128906 10.660156 -10.21875 10.890625 -10.34375 C 10.648438 -10.582031 10.53125 -10.851562 10.53125 -11.15625 C 10.53125 -11.375 10.585938 -11.5625 10.703125 -11.71875 C 10.828125 -11.882812 11.007812 -11.96875 11.25 -11.96875 Z M 11.25 -11.96875 "/></g></g></g><g fill="#662d91" fill-opacity="1"><g transform="translate(190.974429, 218.119498)"><g><path d="M 9.234375 -8.671875 C 9.304688 -8.910156 9.34375 -9.125 9.34375 -9.3125 C 9.34375 -9.582031 9.257812 -9.769531 9.09375 -9.875 C 8.925781 -9.988281 8.644531 -10.054688 8.25 -10.078125 L 8.328125 -10.359375 C 8.671875 -10.335938 9.164062 -10.328125 9.8125 -10.328125 C 10.382812 -10.328125 10.84375 -10.335938 11.1875 -10.359375 L 11.109375 -10.078125 C 10.765625 -10.054688 10.5 -10.003906 10.3125 -9.921875 C 10.125 -9.835938 9.972656 -9.695312 9.859375 -9.5 C 9.742188 -9.3125 9.644531 -9.035156 9.5625 -8.671875 L 8.421875 -4.265625 C 8.066406 -2.910156 7.585938 -1.875 6.984375 -1.15625 C 6.617188 -0.738281 6.175781 -0.40625 5.65625 -0.15625 C 5.132812 0.0820312 4.578125 0.203125 3.984375 0.203125 C 2.941406 0.203125 2.191406 -0.0546875 1.734375 -0.578125 C 1.554688 -0.785156 1.425781 -1.007812 1.34375 -1.25 C 1.257812 -1.488281 1.21875 -1.765625 1.21875 -2.078125 C 1.21875 -2.609375 1.335938 -3.320312 1.578125 -4.21875 L 2.796875 -8.8125 C 2.867188 -9.144531 2.90625 -9.378906 2.90625 -9.515625 C 2.90625 -9.734375 2.832031 -9.875 2.6875 -9.9375 C 2.550781 -10.007812 2.300781 -10.054688 1.9375 -10.078125 L 2.015625 -10.359375 C 2.410156 -10.335938 3.039062 -10.328125 3.90625 -10.328125 C 4.65625 -10.328125 5.265625 -10.335938 5.734375 -10.359375 L 5.65625 -10.078125 C 5.289062 -10.054688 5.019531 -10.015625 4.84375 -9.953125 C 4.675781 -9.898438 4.539062 -9.789062 4.4375 -9.625 C 4.34375 -9.457031 4.242188 -9.1875 4.140625 -8.8125 L 2.859375 -3.96875 C 2.640625 -3.132812 2.53125 -2.472656 2.53125 -1.984375 C 2.53125 -1.453125 2.664062 -1.039062 2.9375 -0.75 C 3.207031 -0.457031 3.648438 -0.3125 4.265625 -0.3125 C 5.285156 -0.3125 6.085938 -0.640625 6.671875 -1.296875 C 7.265625 -1.960938 7.71875 -2.894531 8.03125 -4.09375 Z M 9.234375 -8.671875 "/></g></g></g><g fill="#662d91" fill-opacity="1"><g transform="translate(201.220392, 218.119498)"><g><path d="M 8.671875 -1.765625 L 9 -1.765625 L 8.953125 -1.578125 C 8.773438 -0.960938 8.550781 -0.507812 8.28125 -0.21875 C 8.007812 0.0625 7.648438 0.203125 7.203125 0.203125 C 6.742188 0.203125 6.398438 0.0664062 6.171875 -0.203125 C 5.953125 -0.472656 5.859375 -0.804688 5.890625 -1.203125 L 6 -2.84375 C 6.007812 -2.957031 6.015625 -3.113281 6.015625 -3.3125 C 6.015625 -3.71875 5.941406 -4.03125 5.796875 -4.25 C 5.648438 -4.476562 5.382812 -4.644531 5 -4.75 C 4.613281 -4.851562 4.054688 -4.910156 3.328125 -4.921875 L 2.4375 -1.546875 C 2.34375 -1.253906 2.296875 -1.015625 2.296875 -0.828125 C 2.296875 -0.640625 2.363281 -0.503906 2.5 -0.421875 C 2.644531 -0.347656 2.910156 -0.304688 3.296875 -0.296875 L 3.234375 0 C 2.785156 -0.03125 2.179688 -0.046875 1.421875 -0.046875 C 0.554688 -0.046875 -0.078125 -0.03125 -0.484375 0 L -0.421875 -0.296875 C -0.0664062 -0.316406 0.191406 -0.351562 0.359375 -0.40625 C 0.535156 -0.46875 0.675781 -0.582031 0.78125 -0.75 C 0.882812 -0.914062 0.984375 -1.179688 1.078125 -1.546875 L 3.015625 -8.8125 C 3.097656 -9.144531 3.140625 -9.375 3.140625 -9.5 C 3.140625 -9.707031 3.066406 -9.851562 2.921875 -9.9375 C 2.773438 -10.019531 2.519531 -10.066406 2.15625 -10.078125 L 2.21875 -10.359375 C 2.613281 -10.335938 3.21875 -10.328125 4.03125 -10.328125 C 4.5 -10.328125 4.847656 -10.332031 5.078125 -10.34375 L 6.15625 -10.34375 C 7.113281 -10.34375 7.835938 -10.160156 8.328125 -9.796875 C 8.828125 -9.429688 9.078125 -8.925781 9.078125 -8.28125 C 9.078125 -7.488281 8.726562 -6.796875 8.03125 -6.203125 C 7.34375 -5.617188 6.414062 -5.226562 5.25 -5.03125 C 5.382812 -5.019531 5.554688 -5 5.765625 -4.96875 C 6.335938 -4.851562 6.75 -4.675781 7 -4.4375 C 7.257812 -4.207031 7.390625 -3.835938 7.390625 -3.328125 C 7.390625 -3.203125 7.382812 -3.101562 7.375 -3.03125 L 7.265625 -1.53125 C 7.253906 -1.46875 7.25 -1.367188 7.25 -1.234375 C 7.25 -0.640625 7.40625 -0.34375 7.71875 -0.34375 C 7.882812 -0.34375 8.035156 -0.441406 8.171875 -0.640625 C 8.304688 -0.835938 8.445312 -1.144531 8.59375 -1.5625 Z M 3.40625 -5.21875 L 3.84375 -5.21875 C 5.164062 -5.21875 6.117188 -5.503906 6.703125 -6.078125 C 7.296875 -6.648438 7.59375 -7.414062 7.59375 -8.375 C 7.59375 -8.945312 7.445312 -9.375 7.15625 -9.65625 C 6.863281 -9.9375 6.390625 -10.078125 5.734375 -10.078125 C 5.441406 -10.078125 5.210938 -10.039062 5.046875 -9.96875 C 4.878906 -9.894531 4.742188 -9.769531 4.640625 -9.59375 C 4.546875 -9.414062 4.453125 -9.15625 4.359375 -8.8125 Z M 3.40625 -5.21875 "/></g></g></g><g fill="#662d91" fill-opacity="1"><g transform="translate(211.20289, 218.119498)"><g><path d="M 7.375 -1.234375 C 7.40625 -0.910156 7.488281 -0.675781 7.625 -0.53125 C 7.757812 -0.382812 7.914062 -0.304688 8.09375 -0.296875 L 8.03125 0 C 7.644531 -0.03125 7.113281 -0.046875 6.4375 -0.046875 C 5.644531 -0.046875 5.0625 -0.03125 4.6875 0 L 4.75 -0.296875 C 5.070312 -0.316406 5.320312 -0.359375 5.5 -0.421875 C 5.6875 -0.484375 5.816406 -0.597656 5.890625 -0.765625 C 5.972656 -0.941406 6.007812 -1.191406 6 -1.515625 L 5.875 -3.921875 L 2.265625 -3.921875 L 1.171875 -2.375 C 0.710938 -1.726562 0.484375 -1.242188 0.484375 -0.921875 C 0.484375 -0.523438 0.84375 -0.316406 1.5625 -0.296875 L 1.5 0 C 0.957031 -0.03125 0.398438 -0.046875 -0.171875 -0.046875 C -0.597656 -0.046875 -0.96875 -0.03125 -1.28125 0 L -1.203125 -0.296875 C -0.753906 -0.390625 -0.265625 -0.8125 0.265625 -1.5625 L 6.578125 -10.4375 L 6.796875 -10.4375 Z M 5.859375 -4.21875 L 5.609375 -8.65625 L 2.46875 -4.21875 Z M 5.859375 -4.21875 "/></g></g></g><g fill="#662d91" fill-opacity="1"><g transform="translate(220.673104, 218.119498)"><g><path d="M 7.828125 -3.078125 C 7.765625 -2.890625 7.644531 -2.488281 7.46875 -1.875 C 7.3125 -1.320312 7.179688 -0.695312 7.078125 0 C 6.410156 -0.03125 5.289062 -0.046875 3.71875 -0.046875 C 1.84375 -0.046875 0.429688 -0.03125 -0.515625 0 L -0.4375 -0.296875 C -0.0820312 -0.316406 0.175781 -0.351562 0.34375 -0.40625 C 0.507812 -0.46875 0.644531 -0.582031 0.75 -0.75 C 0.863281 -0.914062 0.96875 -1.179688 1.0625 -1.546875 L 3.015625 -8.8125 C 3.097656 -9.125 3.140625 -9.363281 3.140625 -9.53125 C 3.140625 -9.738281 3.066406 -9.875 2.921875 -9.9375 C 2.785156 -10.007812 2.535156 -10.054688 2.171875 -10.078125 L 2.234375 -10.359375 C 2.648438 -10.335938 3.273438 -10.328125 4.109375 -10.328125 C 4.898438 -10.328125 5.519531 -10.335938 5.96875 -10.359375 L 5.90625 -10.078125 C 5.539062 -10.054688 5.269531 -10.015625 5.09375 -9.953125 C 4.925781 -9.898438 4.789062 -9.789062 4.6875 -9.625 C 4.582031 -9.457031 4.476562 -9.1875 4.375 -8.8125 L 2.4375 -1.546875 C 2.34375 -1.242188 2.296875 -1.003906 2.296875 -0.828125 C 2.296875 -0.628906 2.367188 -0.5 2.515625 -0.4375 C 2.660156 -0.375 2.921875 -0.34375 3.296875 -0.34375 L 4.359375 -0.34375 C 4.960938 -0.34375 5.445312 -0.425781 5.8125 -0.59375 C 6.1875 -0.757812 6.492188 -1.03125 6.734375 -1.40625 C 6.972656 -1.789062 7.226562 -2.347656 7.5 -3.078125 Z M 7.828125 -3.078125 "/></g></g></g><g fill="#662d91" fill-opacity="1"><g transform="translate(229.51395, 218.119498)"><g/></g></g><g fill="#662d91" fill-opacity="1"><g transform="translate(233.480793, 218.119498)"><g><path d="M 10.109375 -10.328125 C 10.953125 -10.328125 11.582031 -10.335938 12 -10.359375 L 11.9375 -10.078125 C 11.570312 -10.054688 11.300781 -10.015625 11.125 -9.953125 C 10.957031 -9.898438 10.820312 -9.789062 10.71875 -9.625 C 10.625 -9.457031 10.523438 -9.1875 10.421875 -8.8125 L 8.484375 -1.546875 C 8.398438 -1.179688 8.359375 -0.941406 8.359375 -0.828125 C 8.359375 -0.628906 8.425781 -0.492188 8.5625 -0.421875 C 8.707031 -0.359375 8.972656 -0.316406 9.359375 -0.296875 L 9.296875 0 C 8.890625 -0.03125 8.265625 -0.046875 7.421875 -0.046875 C 6.640625 -0.046875 6.019531 -0.03125 5.5625 0 L 5.625 -0.296875 C 5.976562 -0.316406 6.238281 -0.351562 6.40625 -0.40625 C 6.582031 -0.46875 6.722656 -0.582031 6.828125 -0.75 C 6.929688 -0.914062 7.03125 -1.179688 7.125 -1.546875 L 8.0625 -5.0625 L 3.375 -5.0625 L 2.4375 -1.546875 C 2.34375 -1.179688 2.296875 -0.941406 2.296875 -0.828125 C 2.296875 -0.628906 2.363281 -0.492188 2.5 -0.421875 C 2.644531 -0.359375 2.910156 -0.316406 3.296875 -0.296875 L 3.234375 0 C 2.785156 -0.03125 2.164062 -0.046875 1.375 -0.046875 C 0.550781 -0.046875 -0.0664062 -0.03125 -0.484375 0 L -0.40625 -0.296875 C -0.0625 -0.316406 0.191406 -0.351562 0.359375 -0.40625 C 0.523438 -0.46875 0.660156 -0.582031 0.765625 -0.75 C 0.867188 -0.925781 0.96875 -1.191406 1.0625 -1.546875 L 3 -8.8125 C 3.082031 -9.144531 3.125 -9.378906 3.125 -9.515625 C 3.125 -9.734375 3.050781 -9.875 2.90625 -9.9375 C 2.757812 -10.007812 2.503906 -10.054688 2.140625 -10.078125 L 2.203125 -10.359375 C 2.609375 -10.335938 3.226562 -10.328125 4.0625 -10.328125 C 4.84375 -10.328125 5.46875 -10.335938 5.9375 -10.359375 L 5.875 -10.078125 C 5.507812 -10.054688 5.238281 -10.015625 5.0625 -9.953125 C 4.894531 -9.898438 4.757812 -9.789062 4.65625 -9.625 C 4.5625 -9.457031 4.460938 -9.1875 4.359375 -8.8125 L 3.4375 -5.359375 L 8.140625 -5.359375 L 9.0625 -8.8125 C 9.144531 -9.125 9.1875 -9.359375 9.1875 -9.515625 C 9.1875 -9.734375 9.113281 -9.875 8.96875 -9.9375 C 8.820312 -10.007812 8.566406 -10.054688 8.203125 -10.078125 L 8.265625 -10.359375 C 8.710938 -10.335938 9.328125 -10.328125 10.109375 -10.328125 Z M 10.109375 -10.328125 "/></g></g></g><g fill="#662d91" fill-opacity="1"><g transform="translate(244.795228, 218.119498)"><g><path d="M 6.484375 -10.328125 C 7.847656 -10.328125 8.820312 -10.335938 9.40625 -10.359375 C 9.144531 -9.660156 8.957031 -9.085938 8.84375 -8.640625 C 8.738281 -8.285156 8.671875 -7.984375 8.640625 -7.734375 L 8.296875 -7.734375 C 8.390625 -8.296875 8.4375 -8.6875 8.4375 -8.90625 C 8.4375 -9.320312 8.328125 -9.613281 8.109375 -9.78125 C 7.890625 -9.945312 7.503906 -10.03125 6.953125 -10.03125 L 5.890625 -10.03125 C 5.535156 -10.03125 5.269531 -10.003906 5.09375 -9.953125 C 4.925781 -9.898438 4.789062 -9.789062 4.6875 -9.625 C 4.582031 -9.457031 4.476562 -9.1875 4.375 -8.8125 L 3.453125 -5.359375 L 4.421875 -5.359375 C 4.765625 -5.359375 5.046875 -5.4375 5.265625 -5.59375 C 5.492188 -5.757812 5.671875 -5.945312 5.796875 -6.15625 C 5.921875 -6.375 6.046875 -6.648438 6.171875 -6.984375 C 6.203125 -7.078125 6.242188 -7.179688 6.296875 -7.296875 L 6.625 -7.296875 C 6.425781 -6.648438 6.257812 -6.066406 6.125 -5.546875 L 6.03125 -5.21875 C 5.894531 -4.695312 5.738281 -4.003906 5.5625 -3.140625 L 5.234375 -3.140625 L 5.265625 -3.421875 C 5.273438 -3.492188 5.289062 -3.601562 5.3125 -3.75 C 5.332031 -3.894531 5.34375 -4.019531 5.34375 -4.125 C 5.34375 -4.414062 5.265625 -4.644531 5.109375 -4.8125 C 4.960938 -4.976562 4.703125 -5.0625 4.328125 -5.0625 L 3.375 -5.0625 L 2.4375 -1.546875 C 2.34375 -1.242188 2.296875 -1.003906 2.296875 -0.828125 C 2.296875 -0.628906 2.367188 -0.5 2.515625 -0.4375 C 2.660156 -0.375 2.921875 -0.34375 3.296875 -0.34375 L 4.359375 -0.34375 C 4.960938 -0.34375 5.445312 -0.421875 5.8125 -0.578125 C 6.175781 -0.734375 6.476562 -0.988281 6.71875 -1.34375 C 6.957031 -1.707031 7.203125 -2.234375 7.453125 -2.921875 L 7.78125 -2.921875 C 7.675781 -2.640625 7.570312 -2.289062 7.46875 -1.875 C 7.3125 -1.320312 7.179688 -0.695312 7.078125 0 C 6.410156 -0.03125 5.289062 -0.046875 3.71875 -0.046875 C 1.84375 -0.046875 0.429688 -0.03125 -0.515625 0 L -0.4375 -0.296875 C -0.0820312 -0.316406 0.175781 -0.351562 0.34375 -0.40625 C 0.507812 -0.46875 0.644531 -0.582031 0.75 -0.75 C 0.863281 -0.914062 0.96875 -1.179688 1.0625 -1.546875 L 3.015625 -8.8125 C 3.097656 -9.125 3.140625 -9.363281 3.140625 -9.53125 C 3.140625 -9.738281 3.066406 -9.875 2.921875 -9.9375 C 2.785156 -10.007812 2.535156 -10.054688 2.171875 -10.078125 L 2.234375 -10.359375 C 3.191406 -10.335938 4.609375 -10.328125 6.484375 -10.328125 Z M 6.484375 -10.328125 "/></g></g></g><g fill="#662d91" fill-opacity="1"><g transform="translate(253.987351, 218.119498)"><g><path d="M 7.375 -1.234375 C 7.40625 -0.910156 7.488281 -0.675781 7.625 -0.53125 C 7.757812 -0.382812 7.914062 -0.304688 8.09375 -0.296875 L 8.03125 0 C 7.644531 -0.03125 7.113281 -0.046875 6.4375 -0.046875 C 5.644531 -0.046875 5.0625 -0.03125 4.6875 0 L 4.75 -0.296875 C 5.070312 -0.316406 5.320312 -0.359375 5.5 -0.421875 C 5.6875 -0.484375 5.816406 -0.597656 5.890625 -0.765625 C 5.972656 -0.941406 6.007812 -1.191406 6 -1.515625 L 5.875 -3.921875 L 2.265625 -3.921875 L 1.171875 -2.375 C 0.710938 -1.726562 0.484375 -1.242188 0.484375 -0.921875 C 0.484375 -0.523438 0.84375 -0.316406 1.5625 -0.296875 L 1.5 0 C 0.957031 -0.03125 0.398438 -0.046875 -0.171875 -0.046875 C -0.597656 -0.046875 -0.96875 -0.03125 -1.28125 0 L -1.203125 -0.296875 C -0.753906 -0.390625 -0.265625 -0.8125 0.265625 -1.5625 L 6.578125 -10.4375 L 6.796875 -10.4375 Z M 5.859375 -4.21875 L 5.609375 -8.65625 L 2.46875 -4.21875 Z M 5.859375 -4.21875 "/></g></g></g><g fill="#662d91" fill-opacity="1"><g transform="translate(263.457565, 218.119498)"><g><path d="M 7.828125 -3.078125 C 7.765625 -2.890625 7.644531 -2.488281 7.46875 -1.875 C 7.3125 -1.320312 7.179688 -0.695312 7.078125 0 C 6.410156 -0.03125 5.289062 -0.046875 3.71875 -0.046875 C 1.84375 -0.046875 0.429688 -0.03125 -0.515625 0 L -0.4375 -0.296875 C -0.0820312 -0.316406 0.175781 -0.351562 0.34375 -0.40625 C 0.507812 -0.46875 0.644531 -0.582031 0.75 -0.75 C 0.863281 -0.914062 0.96875 -1.179688 1.0625 -1.546875 L 3.015625 -8.8125 C 3.097656 -9.125 3.140625 -9.363281 3.140625 -9.53125 C 3.140625 -9.738281 3.066406 -9.875 2.921875 -9.9375 C 2.785156 -10.007812 2.535156 -10.054688 2.171875 -10.078125 L 2.234375 -10.359375 C 2.648438 -10.335938 3.273438 -10.328125 4.109375 -10.328125 C 4.898438 -10.328125 5.519531 -10.335938 5.96875 -10.359375 L 5.90625 -10.078125 C 5.539062 -10.054688 5.269531 -10.015625 5.09375 -9.953125 C 4.925781 -9.898438 4.789062 -9.789062 4.6875 -9.625 C 4.582031 -9.457031 4.476562 -9.1875 4.375 -8.8125 L 2.4375 -1.546875 C 2.34375 -1.242188 2.296875 -1.003906 2.296875 -0.828125 C 2.296875 -0.628906 2.367188 -0.5 2.515625 -0.4375 C 2.660156 -0.375 2.921875 -0.34375 3.296875 -0.34375 L 4.359375 -0.34375 C 4.960938 -0.34375 5.445312 -0.425781 5.8125 -0.59375 C 6.1875 -0.757812 6.492188 -1.03125 6.734375 -1.40625 C 6.972656 -1.789062 7.226562 -2.347656 7.5 -3.078125 Z M 7.828125 -3.078125 "/></g></g></g><g fill="#662d91" fill-opacity="1"><g transform="translate(272.298411, 218.119498)"><g><path d="M 11.25 -11.96875 C 11.457031 -11.96875 11.617188 -11.898438 11.734375 -11.765625 C 11.847656 -11.628906 11.90625 -11.460938 11.90625 -11.265625 C 11.90625 -11.046875 11.835938 -10.84375 11.703125 -10.65625 C 11.578125 -10.476562 11.414062 -10.328125 11.21875 -10.203125 C 10.695312 -9.878906 9.925781 -9.71875 8.90625 -9.71875 C 8.46875 -9.71875 7.96875 -9.753906 7.40625 -9.828125 L 5.234375 -1.703125 C 5.148438 -1.398438 5.109375 -1.148438 5.109375 -0.953125 C 5.109375 -0.703125 5.195312 -0.53125 5.375 -0.4375 C 5.5625 -0.351562 5.882812 -0.304688 6.34375 -0.296875 L 6.28125 0 C 5.769531 -0.03125 5.039062 -0.046875 4.09375 -0.046875 C 3.144531 -0.046875 2.4375 -0.03125 1.96875 0 L 2.015625 -0.296875 C 2.429688 -0.316406 2.753906 -0.367188 2.984375 -0.453125 C 3.210938 -0.535156 3.390625 -0.671875 3.515625 -0.859375 C 3.640625 -1.046875 3.757812 -1.328125 3.875 -1.703125 L 6.09375 -10 C 5.300781 -10.101562 4.671875 -10.15625 4.203125 -10.15625 C 3.347656 -10.15625 2.800781 -10.070312 2.5625 -9.90625 C 2.632812 -9.800781 2.695312 -9.671875 2.75 -9.515625 C 2.800781 -9.359375 2.828125 -9.207031 2.828125 -9.0625 C 2.828125 -8.832031 2.757812 -8.632812 2.625 -8.46875 C 2.5 -8.300781 2.320312 -8.21875 2.09375 -8.21875 C 1.882812 -8.21875 1.722656 -8.28125 1.609375 -8.40625 C 1.503906 -8.539062 1.453125 -8.722656 1.453125 -8.953125 C 1.453125 -9.453125 1.707031 -9.832031 2.21875 -10.09375 C 2.675781 -10.3125 3.332031 -10.421875 4.1875 -10.421875 C 4.570312 -10.421875 4.941406 -10.40625 5.296875 -10.375 C 5.648438 -10.34375 6.09375 -10.289062 6.625 -10.21875 C 7.132812 -10.144531 7.5625 -10.09375 7.90625 -10.0625 C 8.257812 -10.03125 8.625 -10.015625 9 -10.015625 C 9.4375 -10.015625 9.800781 -10.035156 10.09375 -10.078125 C 10.394531 -10.128906 10.660156 -10.21875 10.890625 -10.34375 C 10.648438 -10.582031 10.53125 -10.851562 10.53125 -11.15625 C 10.53125 -11.375 10.585938 -11.5625 10.703125 -11.71875 C 10.828125 -11.882812 11.007812 -11.96875 11.25 -11.96875 Z M 11.25 -11.96875 "/></g></g></g><g fill="#662d91" fill-opacity="1"><g transform="translate(282.207724, 218.119498)"><g><path d="M 10.109375 -10.328125 C 10.953125 -10.328125 11.582031 -10.335938 12 -10.359375 L 11.9375 -10.078125 C 11.570312 -10.054688 11.300781 -10.015625 11.125 -9.953125 C 10.957031 -9.898438 10.820312 -9.789062 10.71875 -9.625 C 10.625 -9.457031 10.523438 -9.1875 10.421875 -8.8125 L 8.484375 -1.546875 C 8.398438 -1.179688 8.359375 -0.941406 8.359375 -0.828125 C 8.359375 -0.628906 8.425781 -0.492188 8.5625 -0.421875 C 8.707031 -0.359375 8.972656 -0.316406 9.359375 -0.296875 L 9.296875 0 C 8.890625 -0.03125 8.265625 -0.046875 7.421875 -0.046875 C 6.640625 -0.046875 6.019531 -0.03125 5.5625 0 L 5.625 -0.296875 C 5.976562 -0.316406 6.238281 -0.351562 6.40625 -0.40625 C 6.582031 -0.46875 6.722656 -0.582031 6.828125 -0.75 C 6.929688 -0.914062 7.03125 -1.179688 7.125 -1.546875 L 8.0625 -5.0625 L 3.375 -5.0625 L 2.4375 -1.546875 C 2.34375 -1.179688 2.296875 -0.941406 2.296875 -0.828125 C 2.296875 -0.628906 2.363281 -0.492188 2.5 -0.421875 C 2.644531 -0.359375 2.910156 -0.316406 3.296875 -0.296875 L 3.234375 0 C 2.785156 -0.03125 2.164062 -0.046875 1.375 -0.046875 C 0.550781 -0.046875 -0.0664062 -0.03125 -0.484375 0 L -0.40625 -0.296875 C -0.0625 -0.316406 0.191406 -0.351562 0.359375 -0.40625 C 0.523438 -0.46875 0.660156 -0.582031 0.765625 -0.75 C 0.867188 -0.925781 0.96875 -1.191406 1.0625 -1.546875 L 3 -8.8125 C 3.082031 -9.144531 3.125 -9.378906 3.125 -9.515625 C 3.125 -9.734375 3.050781 -9.875 2.90625 -9.9375 C 2.757812 -10.007812 2.503906 -10.054688 2.140625 -10.078125 L 2.203125 -10.359375 C 2.609375 -10.335938 3.226562 -10.328125 4.0625 -10.328125 C 4.84375 -10.328125 5.46875 -10.335938 5.9375 -10.359375 L 5.875 -10.078125 C 5.507812 -10.054688 5.238281 -10.015625 5.0625 -9.953125 C 4.894531 -9.898438 4.757812 -9.789062 4.65625 -9.625 C 4.5625 -9.457031 4.460938 -9.1875 4.359375 -8.8125 L 3.4375 -5.359375 L 8.140625 -5.359375 L 9.0625 -8.8125 C 9.144531 -9.125 9.1875 -9.359375 9.1875 -9.515625 C 9.1875 -9.734375 9.113281 -9.875 8.96875 -9.9375 C 8.820312 -10.007812 8.566406 -10.054688 8.203125 -10.078125 L 8.265625 -10.359375 C 8.710938 -10.335938 9.328125 -10.328125 10.109375 -10.328125 Z M 10.109375 -10.328125 "/></g></g></g></svg>